<?xml version="1.0" encoding="UTF-8"?>
<svg width="740" height="360" version="1.1" viewBox="0 0 195.79 95.25" xmlns="http://www.w3.org/2000/svg">
 <rect x="5e-7" y="-5.2884e-9" width="195.79" height="95" fill="#fff" stroke-width="0" style="paint-order:stroke fill markers"/>
 <g transform="translate(-50.936 9.0734)" stroke="#000" stroke-linejoin="bevel" stroke-width="0" style="inline-size:150.552;white-space:pre" aria-label="A faster way to build and share data apps">
  <path d="m86.934 12.106h-3.7414l-0.7028 2.0877h-2.2186l3.6242-10.156h2.3978l3.5967 10.156h-2.3013zm-0.59256-1.7501-1.2678-3.9963-1.3091 3.9963zm11.603-6.3803v1.5985q-0.16536-0.020671-0.5581-0.027561-0.38585-0.01378-0.53744 0.17225-0.14469 0.17914-0.14469 0.39963v0.6339h1.2885v1.3849h-1.2885v6.0565h-1.9568v-6.0565h-1.0955v-1.3849h1.0749v-0.48231q0-1.2058 0.40652-1.6605 0.42719-0.67524 2.0602-0.67524 0.18604 0 0.33762 0.01378 0.15158 0.00689 0.41341 0.027561zm1.4607 3.5209q0.77859-0.99219 2.6734-0.99219 1.2334 0 2.1911 0.4892 0.95774 0.4892 0.95774 1.8466v3.4451q0 0.35829 0.0138 0.86816 0.0207 0.38585 0.11713 0.52365 0.0965 0.1378 0.28939 0.22738v0.28939h-2.136q-0.0896-0.22738-0.12402-0.42719-0.0345-0.19982-0.0551-0.45475-0.40652 0.44097-0.93707 0.75103-0.6339 0.36518-1.4332 0.36518-1.0197 0-1.6881-0.57878-0.66146-0.58567-0.66146-1.6536 0-1.3849 1.068-2.005 0.58566-0.33762 1.7225-0.48231l0.66835-0.082682q0.54433-0.068902 0.77859-0.17225 0.4203-0.17914 0.4203-0.5581 0-0.46164-0.32383-0.6339-0.31695-0.17914-0.93707-0.17914-0.69591 0-0.9853 0.34451-0.2067 0.25494-0.2756 0.68902h-1.8948q0.06201-0.9853 0.55122-1.6192zm1.4607 5.2779q0.27561 0.22738 0.67524 0.22738 0.6339 0 1.1644-0.37207 0.53743-0.37207 0.5581-1.3574v-0.73036q-0.18603 0.11713-0.37896 0.19292-0.18603 0.0689-0.51676 0.13091l-0.44097 0.08268q-0.62012 0.11024-0.88884 0.26872-0.45475 0.26872-0.45475 0.83371 0 0.50298 0.2825 0.72347zm11.279-5.7464q0.88194 0.565 1.0128 1.943h-1.9637q-0.0413-0.37896-0.2136-0.59945-0.32383-0.39963-1.1024-0.39963-0.64078 0-0.91639 0.19982-0.26872 0.19982-0.26872 0.46853 0 0.33762 0.28939 0.4892 0.28939 0.15847 2.0464 0.54432 1.1713 0.27561 1.757 0.83371 0.57878 0.565 0.57878 1.4125 0 1.1162-0.83371 1.8259-0.82683 0.7028-2.5632 0.7028-1.7708 0-2.6183-0.74414-0.84061-0.75103-0.84061-1.9086h1.9913q0.062 0.52366 0.26871 0.74414 0.36518 0.39274 1.3505 0.39274 0.57878 0 0.9164-0.17226 0.34451-0.17225 0.34451-0.51676 0-0.33073-0.27561-0.50298t-2.0464-0.59256q-1.2747-0.31695-1.7983-0.79237-0.52365-0.46853-0.52365-1.3505 0-1.0404 0.81304-1.7846 0.81993-0.75103 2.3013-0.75103 1.4056 0 2.2944 0.5581zm6.1116 5.7671v1.4676l-0.93018 0.03445q-1.3918 0.04823-1.9017-0.48231-0.33073-0.33762-0.33073-1.0404v-4.6233h-1.0473v-1.3987h1.0473v-2.0946h1.943v2.0946h1.2196v1.3987h-1.2196v3.9687q0 0.46164 0.11713 0.57878 0.11713 0.11024 0.71658 0.11024 0.0896 0 0.18603 0 0.10336-0.0069 0.19982-0.01378zm7.6894-0.80615q-0.0758 0.66835-0.69591 1.3574-0.96463 1.0955-2.701 1.0955-1.4332 0-2.5287-0.92328t-1.0955-3.0041q0-1.9499 0.98529-2.9903 0.99219-1.0404 2.57-1.0404 0.93707 0 1.6881 0.3514t1.2402 1.1093q0.44097 0.66835 0.57189 1.5503 0.0758 0.51676 0.062 1.4883h-5.1401q0.0413 1.13 0.70969 1.5847 0.40652 0.2825 0.97841 0.2825 0.60633 0 0.98529-0.34451 0.20671-0.18604 0.36518-0.51676zm-1.943-2.3013q-0.0482-0.77859-0.47542-1.1782-0.4203-0.40652-1.0473-0.40652-0.68212 0-1.0611 0.42719-0.37207 0.42719-0.46854 1.1576zm7.1382-1.192q-1.1851 0-1.5916 0.7717-0.22737 0.43408-0.22737 1.3367v3.5898h-1.9775v-7.5103h1.8741v1.3091q0.45476-0.75103 0.79237-1.0266 0.55122-0.46164 1.4332-0.46164 0.0551 0 0.0896 0.00689 0.0413 0 0.17225 0.00689v2.0119q-0.18603-0.020671-0.33073-0.027561-0.14469-0.00689-0.23426-0.00689zm11.334 5.6982-1.1782-5.4708-1.192 5.4708h-2.0395l-2.1084-7.5103h2.1084l1.1713 5.3881 1.0818-5.3881h1.9913l1.1438 5.4088 1.1713-5.4088h2.0464l-2.1773 7.5103zm5.5604-6.6973q0.77859-0.99219 2.6734-0.99219 1.2333 0 2.1911 0.4892 0.95774 0.4892 0.95774 1.8466v3.4451q0 0.35829 0.0138 0.86816 0.0207 0.38585 0.11713 0.52365 0.0965 0.1378 0.28939 0.22738v0.28939h-2.136q-0.0896-0.22738-0.12402-0.42719-0.0345-0.19982-0.0551-0.45475-0.40652 0.44097-0.93706 0.75103-0.6339 0.36518-1.4332 0.36518-1.0198 0-1.6881-0.57878-0.66146-0.58567-0.66146-1.6536 0-1.3849 1.068-2.005 0.58566-0.33762 1.7225-0.48231l0.66835-0.082682q0.54433-0.068902 0.77859-0.17225 0.4203-0.17914 0.4203-0.5581 0-0.46164-0.32384-0.6339-0.31694-0.17914-0.93706-0.17914-0.69591 0-0.9853 0.34451-0.2067 0.25494-0.27561 0.68902h-1.8948q0.062-0.9853 0.55122-1.6192zm1.4607 5.2779q0.27561 0.22738 0.67524 0.22738 0.63389 0 1.1644-0.37207 0.53743-0.37207 0.5581-1.3574v-0.73036q-0.18603 0.11713-0.37896 0.19292-0.18603 0.0689-0.51676 0.13091l-0.44097 0.08268q-0.62012 0.11024-0.88884 0.26872-0.45475 0.26872-0.45475 0.83371 0 0.50298 0.2825 0.72347zm9.1571-0.55122 1.5503-5.5397h2.0877l-2.5769 7.3863q-0.74414 2.136-1.1782 2.6458-0.43408 0.51676-1.7363 0.51676-0.26183 0-0.4203-0.0069-0.15848 0-0.47543-0.02067v-1.571l0.24805 0.01378q0.28939 0.01378 0.55121-0.02067 0.26183-0.03445 0.44098-0.15848 0.17225-0.11713 0.31694-0.4892 0.15159-0.37207 0.12403-0.45475l-2.7561-7.841h2.1842zm12.154 0.57188v1.4676l-0.93018 0.03445q-1.3918 0.04823-1.9017-0.48231-0.33073-0.33762-0.33073-1.0404v-4.6233h-1.0473v-1.3987h1.0473v-2.0946h1.943v2.0946h1.2196v1.3987h-1.2196v3.9687q0 0.46164 0.11714 0.57878 0.11713 0.11024 0.71658 0.11024 0.0896 0 0.18603 0 0.10335-0.0069 0.19982-0.01378zm7.5241-5.1607q0.95084 1.192 0.95084 2.8181 0 1.6536-0.95084 2.8319-0.95085 1.1713-2.887 1.1713t-2.887-1.1713q-0.95084-1.1782-0.95084-2.8319 0-1.6261 0.95084-2.8181 0.95085-1.192 2.887-1.192t2.887 1.192zm-2.8939 0.46853q-0.86127 0-1.3298 0.61323-0.46164 0.60634-0.46164 1.7363 0 1.13 0.46164 1.7432 0.46854 0.61323 1.3298 0.61323t1.3229-0.61323q0.46164-0.61323 0.46164-1.7432 0-1.13-0.46164-1.7363-0.46165-0.61323-1.3229-0.61323zm13.25 6.2907q-0.93018 0-1.4952-0.37207-0.33762-0.22049-0.73036-0.7717v0.94396h-1.9224v-10.142h1.9568v3.6105q0.37207-0.52365 0.81993-0.79926 0.53054-0.34451 1.3505-0.34451 1.4814 0 2.3151 1.068 0.8406 1.068 0.8406 2.7561 0 1.7501-0.82682 2.9008t-2.3082 1.1507zm1.0749-3.8447q0-0.79926-0.20671-1.3229-0.39274-0.99219-1.4469-0.99219-1.068 0-1.4676 0.97152-0.2067 0.51676-0.2067 1.3367 0 0.96463 0.42719 1.5985t1.3022 0.6339q0.75792 0 1.1782-0.61323 0.42031-0.61323 0.42031-1.6123zm8.282 2.5838q-0.0276 0.03445-0.13781 0.20671-0.11024 0.17226-0.26182 0.30317-0.46164 0.41341-0.89573 0.565-0.42719 0.15158-1.006 0.15158-1.6674 0-2.2462-1.1989-0.32384-0.66146-0.32384-1.9499v-4.5269h2.0119v4.5269q0 0.64079 0.15159 0.96463 0.26871 0.57188 1.0542 0.57188 1.006 0 1.378-0.81304 0.19293-0.44097 0.19293-1.1644v-4.0859h1.9913v7.5103h-1.9086zm5.8222-6.4492v7.5103h-1.9913v-7.5103zm0-2.7078v1.8121h-1.9913v-1.8121zm1.943 0.062012h1.9637v10.156h-1.9637zm10.714 0.01378v10.142h-1.9086v-1.0404q-0.4203 0.66835-0.95774 0.97152-0.53743 0.30317-1.3367 0.30317-1.316 0-2.2186-1.0611-0.89573-1.068-0.89573-2.7354 0-1.9224 0.88195-3.0248 0.88883-1.1024 2.3702-1.1024 0.68213 0 1.2127 0.30317 0.53055 0.29628 0.86128 0.82682v-3.5829zm-5.2917 6.4354q0 1.0404 0.41341 1.6605 0.40652 0.62701 1.2402 0.62701t1.2678-0.62012q0.43408-0.62012 0.43408-1.6054 0-1.378-0.69591-1.9706-0.42719-0.35829-0.99219-0.35829-0.86127 0-1.2678 0.65457-0.39963 0.64768-0.39963 1.6123z"/>
  <path d="m81.625 22.002q0.77859-0.99219 2.6734-0.99219 1.2333 0 2.1911 0.4892 0.95774 0.4892 0.95774 1.8466v3.4451q0 0.35829 0.01378 0.86816 0.02067 0.38585 0.11713 0.52365 0.09646 0.1378 0.28939 0.22738v0.28939h-2.136q-0.08957-0.22738-0.12402-0.42719-0.03445-0.19982-0.05512-0.45475-0.40652 0.44097-0.93707 0.75103-0.6339 0.36518-1.4332 0.36518-1.0197 0-1.6881-0.57878-0.66146-0.58566-0.66146-1.6536 0-1.3849 1.068-2.005 0.58567-0.33762 1.7225-0.48231l0.66835-0.08268q0.54432-0.0689 0.77859-0.17225 0.4203-0.17914 0.4203-0.5581 0-0.46164-0.32384-0.6339-0.31695-0.17914-0.93706-0.17914-0.69591 0-0.9853 0.34451-0.2067 0.25494-0.27561 0.68902h-1.8948q0.06201-0.9853 0.55122-1.6192zm1.4607 5.2779q0.27561 0.22738 0.67524 0.22738 0.6339 0 1.1644-0.37207 0.53743-0.37207 0.5581-1.3574v-0.73036q-0.18604 0.11713-0.37896 0.19292-0.18604 0.0689-0.51676 0.13091l-0.44097 0.08268q-0.62012 0.11024-0.88883 0.26872-0.45475 0.26872-0.45475 0.83371 0 0.50298 0.2825 0.72347zm9.6394-4.6371q-0.99908 0-1.3711 0.84749-0.19292 0.44786-0.19292 1.1438v4.0652h-1.9568v-7.4965h1.8948v1.0955q0.37896-0.57878 0.71658-0.83371 0.60634-0.45475 1.5365-0.45475 1.1644 0 1.9017 0.61323 0.74414 0.60634 0.74414 2.0188v5.0574h-2.0119v-4.5682q0-0.59256-0.15847-0.9095-0.28939-0.57878-1.1024-0.57878zm11.92-4.0859v10.142h-1.9086v-1.0404q-0.4203 0.66835-0.95774 0.97152-0.53743 0.30317-1.3367 0.30317-1.316 0-2.2186-1.0611-0.89572-1.068-0.89572-2.7354 0-1.9224 0.88194-3.0248 0.88883-1.1024 2.3702-1.1024 0.68213 0 1.2127 0.30317 0.53055 0.29628 0.86128 0.82682v-3.5829zm-5.2917 6.4354q0 1.0404 0.41341 1.6605 0.40652 0.62701 1.2402 0.62701t1.2678-0.62012q0.43408-0.62012 0.43408-1.6054 0-1.378-0.69591-1.9706-0.42719-0.35829-0.99219-0.35829-0.86127 0-1.2678 0.65457-0.39963 0.64768-0.39963 1.6123zm16.171-3.4589q0.88194 0.565 1.0129 1.943h-1.9637q-0.0413-0.37896-0.21359-0.59945-0.32384-0.39963-1.1024-0.39963-0.64079 0-0.9164 0.19982-0.26871 0.19982-0.26871 0.46853 0 0.33762 0.28939 0.4892 0.28938 0.15847 2.0464 0.54432 1.1713 0.27561 1.757 0.83371 0.57877 0.565 0.57877 1.4125 0 1.1162-0.83371 1.8259-0.82682 0.7028-2.5632 0.7028-1.7708 0-2.6183-0.74414-0.8406-0.75103-0.8406-1.9086h1.9913q0.062 0.52365 0.26872 0.74414 0.36518 0.39274 1.3505 0.39274 0.57877 0 0.91639-0.17226 0.34451-0.17226 0.34451-0.51676 0-0.33073-0.27561-0.50298-0.2756-0.17225-2.0464-0.59256-1.2747-0.31695-1.7983-0.79237-0.52366-0.46853-0.52366-1.3505 0-1.0404 0.81305-1.7846 0.81993-0.75103 2.3013-0.75103 1.4056 0 2.2944 0.55811zm9.4602 2.7561v4.4097h-2.005v-4.5682q0-0.60634-0.2067-0.97841-0.26872-0.52365-1.0198-0.52365-0.77859 0-1.1851 0.52365-0.39963 0.51676-0.39963 1.4814v4.0652h-1.9568v-10.122h1.9568v3.5898q0.42719-0.65457 0.98529-0.9095 0.565-0.26183 1.1851-0.26183 0.69591 0 1.2609 0.24116 0.57188 0.24116 0.93706 0.73725 0.31006 0.4203 0.37896 0.86816 0.0689 0.44097 0.0689 1.4469zm2.1153-2.2875q0.77859-0.99219 2.6734-0.99219 1.2334 0 2.1911 0.4892 0.95774 0.4892 0.95774 1.8466v3.4451q0 0.35829 0.0138 0.86816 0.0207 0.38585 0.11713 0.52365 0.0965 0.1378 0.28939 0.22738v0.28939h-2.136q-0.0896-0.22738-0.12402-0.42719-0.0344-0.19982-0.0551-0.45475-0.40652 0.44097-0.93707 0.75103-0.6339 0.36518-1.4332 0.36518-1.0197 0-1.6881-0.57878-0.66146-0.58566-0.66146-1.6536 0-1.3849 1.068-2.005 0.58566-0.33762 1.7226-0.48231l0.66834-0.08268q0.54433-0.0689 0.77859-0.17225 0.42031-0.17914 0.42031-0.5581 0-0.46164-0.32384-0.6339-0.31695-0.17914-0.93707-0.17914-0.69591 0-0.9853 0.34451-0.2067 0.25494-0.2756 0.68902h-1.8948q0.062-0.9853 0.55121-1.6192zm1.4607 5.2779q0.27561 0.22738 0.67524 0.22738 0.6339 0 1.1644-0.37207 0.53743-0.37207 0.55811-1.3574v-0.73036q-0.18604 0.11713-0.37896 0.19292-0.18604 0.0689-0.51677 0.13091l-0.44097 0.08268q-0.62012 0.11024-0.88883 0.26872-0.45476 0.26872-0.45476 0.83371 0 0.50298 0.2825 0.72347zm9.8805-4.2788q-1.1851 0-1.5916 0.7717-0.22738 0.43408-0.22738 1.3367v3.5898h-1.9775v-7.5103h1.8741v1.3091q0.45475-0.75103 0.79237-1.0266 0.55121-0.46164 1.4332-0.46164 0.0551 0 0.0896 0.0069 0.0413 0 0.17225 0.0069v2.0119q-0.18603-0.02067-0.33072-0.02756-0.1447-0.0069-0.23427-0.0069zm8.1442 3.4933q-0.0758 0.66835-0.69591 1.3574-0.96463 1.0955-2.701 1.0955-1.4332 0-2.5287-0.92328-1.0955-0.92328-1.0955-3.0041 0-1.9499 0.9853-2.9903 0.99218-1.0404 2.57-1.0404 0.93707 0 1.6881 0.3514 0.75103 0.3514 1.2402 1.1093 0.44098 0.66835 0.57189 1.5503 0.0758 0.51676 0.062 1.4883h-5.1401q0.0413 1.13 0.70969 1.5847 0.40652 0.2825 0.97841 0.2825 0.60633 0 0.98529-0.34451 0.20671-0.18604 0.36518-0.51676zm-1.943-2.3013q-0.0482-0.77859-0.47543-1.1782-0.4203-0.40652-1.0473-0.40652-0.68212 0-1.0611 0.42719-0.37207 0.42719-0.46854 1.1576zm14.118-5.6362v10.142h-1.9086v-1.0404q-0.4203 0.66835-0.95773 0.97152-0.53744 0.30317-1.3367 0.30317-1.316 0-2.2186-1.0611-0.89572-1.068-0.89572-2.7354 0-1.9224 0.88194-3.0248 0.88884-1.1024 2.3702-1.1024 0.68212 0 1.2127 0.30317 0.53054 0.29628 0.86127 0.82682v-3.5829zm-5.2917 6.4354q0 1.0404 0.41341 1.6605 0.40653 0.62701 1.2402 0.62701t1.2678-0.62012q0.43408-0.62012 0.43408-1.6054 0-1.378-0.69591-1.9706-0.42719-0.35829-0.99218-0.35829-0.86128 0-1.2678 0.65457-0.39963 0.64768-0.39963 1.6123zm7.3587-2.9903q0.77859-0.99219 2.6734-0.99219 1.2334 0 2.1911 0.4892 0.95774 0.4892 0.95774 1.8466v3.4451q0 0.35829 0.0138 0.86816 0.0207 0.38585 0.11713 0.52365 0.0965 0.1378 0.28939 0.22738v0.28939h-2.136q-0.0896-0.22738-0.12402-0.42719-0.0344-0.19982-0.0551-0.45475-0.40652 0.44097-0.93707 0.75103-0.6339 0.36518-1.4332 0.36518-1.0198 0-1.6881-0.57878-0.66146-0.58566-0.66146-1.6536 0-1.3849 1.068-2.005 0.58566-0.33762 1.7225-0.48231l0.66835-0.08268q0.54433-0.0689 0.77859-0.17225 0.4203-0.17914 0.4203-0.5581 0-0.46164-0.32383-0.6339-0.31695-0.17914-0.93707-0.17914-0.69591 0-0.9853 0.34451-0.2067 0.25494-0.2756 0.68902h-1.8948q0.062-0.9853 0.55121-1.6192zm1.4607 5.2779q0.27561 0.22738 0.67524 0.22738 0.63389 0 1.1644-0.37207 0.53743-0.37207 0.5581-1.3574v-0.73036q-0.18603 0.11713-0.37896 0.19292-0.18603 0.0689-0.51676 0.13091l-0.44097 0.08268q-0.62012 0.11024-0.88884 0.26872-0.45475 0.26872-0.45475 0.83371 0 0.50298 0.2825 0.72347zm9.5429 0.02067v1.4676l-0.93018 0.03445q-1.3918 0.04823-1.9017-0.48231-0.33073-0.33762-0.33073-1.0404v-4.6233h-1.0473v-1.3987h1.0473v-2.0946h1.943v2.0946h1.2196v1.3987h-1.2196v3.9687q0 0.46164 0.11713 0.57878 0.11713 0.11024 0.71658 0.11024 0.0896 0 0.18603 0 0.10336-0.0069 0.19982-0.01378zm1.5434-5.2986q0.77859-0.99219 2.6734-0.99219 1.2333 0 2.1911 0.4892 0.95773 0.4892 0.95773 1.8466v3.4451q0 0.35829 0.0138 0.86816 0.0207 0.38585 0.11713 0.52365 0.0965 0.1378 0.28939 0.22738v0.28939h-2.136q-0.0896-0.22738-0.12402-0.42719-0.0345-0.19982-0.0551-0.45475-0.40652 0.44097-0.93706 0.75103-0.6339 0.36518-1.4332 0.36518-1.0198 0-1.6881-0.57878-0.66145-0.58566-0.66145-1.6536 0-1.3849 1.068-2.005 0.58566-0.33762 1.7225-0.48231l0.66835-0.08268q0.54432-0.0689 0.77859-0.17225 0.4203-0.17914 0.4203-0.5581 0-0.46164-0.32384-0.6339-0.31695-0.17914-0.93706-0.17914-0.69591 0-0.9853 0.34451-0.2067 0.25494-0.27561 0.68902h-1.8948q0.062-0.9853 0.55122-1.6192zm1.4607 5.2779q0.2756 0.22738 0.67524 0.22738 0.63389 0 1.1644-0.37207 0.53743-0.37207 0.5581-1.3574v-0.73036q-0.18603 0.11713-0.37896 0.19292-0.18603 0.0689-0.51676 0.13091l-0.44097 0.08268q-0.62012 0.11024-0.88884 0.26872-0.45475 0.26872-0.45475 0.83371 0 0.50298 0.2825 0.72347zm10.308-5.2779q0.77859-0.99219 2.6734-0.99219 1.2333 0 2.1911 0.4892 0.95774 0.4892 0.95774 1.8466v3.4451q0 0.35829 0.0138 0.86816 0.0207 0.38585 0.11713 0.52365 0.0965 0.1378 0.28939 0.22738v0.28939h-2.136q-0.0896-0.22738-0.12402-0.42719-0.0345-0.19982-0.0551-0.45475-0.40652 0.44097-0.93706 0.75103-0.6339 0.36518-1.4332 0.36518-1.0198 0-1.6881-0.57878-0.66145-0.58566-0.66145-1.6536 0-1.3849 1.068-2.005 0.58566-0.33762 1.7225-0.48231l0.66835-0.08268q0.54432-0.0689 0.77859-0.17225 0.4203-0.17914 0.4203-0.5581 0-0.46164-0.32384-0.6339-0.31694-0.17914-0.93706-0.17914-0.69591 0-0.9853 0.34451-0.2067 0.25494-0.27561 0.68902h-1.8948q0.062-0.9853 0.55122-1.6192zm1.4607 5.2779q0.2756 0.22738 0.67524 0.22738 0.63389 0 1.1644-0.37207 0.53743-0.37207 0.5581-1.3574v-0.73036q-0.18603 0.11713-0.37896 0.19292-0.18603 0.0689-0.51676 0.13091l-0.44097 0.08268q-0.62012 0.11024-0.88884 0.26872-0.45475 0.26872-0.45475 0.83371 0 0.50298 0.2825 0.72347zm12.395-5.2848q0.90951 0.97152 0.90951 2.8525 0 1.9844-0.89573 3.0248-0.88883 1.0404-2.2944 1.0404-0.89572 0-1.4883-0.44786-0.32384-0.24805-0.6339-0.72347v3.9136h-1.943v-10.466h1.881v1.1093q0.31695-0.4892 0.67524-0.7717 0.65457-0.50298 1.5572-0.50298 1.316 0 2.2324 0.97152zm-1.1162 2.949q0-0.86816-0.39963-1.5365-0.39274-0.66835-1.2816-0.66835-1.068 0-1.4676 1.0129-0.20671 0.53744-0.20671 1.3643 0 1.3091 0.69591 1.8397 0.41341 0.31006 0.97841 0.31006 0.81993 0 1.2471-0.6339 0.43408-0.6339 0.43408-1.6881zm9.7358-2.949q0.90951 0.97152 0.90951 2.8525 0 1.9844-0.89573 3.0248-0.88883 1.0404-2.2944 1.0404-0.89572 0-1.4883-0.44786-0.32384-0.24805-0.63389-0.72347v3.9136h-1.943v-10.466h1.881v1.1093q0.31695-0.4892 0.67524-0.7717 0.65457-0.50298 1.5572-0.50298 1.316 0 2.2324 0.97152zm-1.1162 2.949q0-0.86816-0.39963-1.5365-0.39274-0.66835-1.2816-0.66835-1.068 0-1.4676 1.0129-0.20671 0.53744-0.20671 1.3643 0 1.3091 0.69591 1.8397 0.41341 0.31006 0.97841 0.31006 0.81993 0 1.2471-0.6339 0.43408-0.6339 0.43408-1.6881zm8.6196-3.4106q0.88194 0.565 1.0128 1.943h-1.9637q-0.0413-0.37896-0.2136-0.59945-0.32383-0.39963-1.1024-0.39963-0.64078 0-0.91639 0.19982-0.26872 0.19982-0.26872 0.46853 0 0.33762 0.28939 0.4892 0.28939 0.15847 2.0464 0.54432 1.1713 0.27561 1.757 0.83371 0.57878 0.565 0.57878 1.4125 0 1.1162-0.83371 1.8259-0.82683 0.7028-2.5632 0.7028-1.7708 0-2.6183-0.74414-0.84061-0.75103-0.84061-1.9086h1.9913q0.062 0.52365 0.26871 0.74414 0.36518 0.39274 1.3505 0.39274 0.57878 0 0.9164-0.17226 0.34451-0.17226 0.34451-0.51676 0-0.33073-0.27561-0.50298-0.27561-0.17225-2.0464-0.59256-1.2747-0.31695-1.7983-0.79237-0.52365-0.46853-0.52365-1.3505 0-1.0404 0.81304-1.7846 0.81993-0.75103 2.3013-0.75103 1.4056 0 2.2944 0.55811z"/>
 </g>
 <path d="m43.21 51.635c7.3058-9.4705 9.6211-7.4661 14.778-7.5502 5.9334-0.09684 25.064 0.88396 29.767 0.36698 4.1382-0.45494 10.705-5.1218 10.705-5.1218 0.88166 7.2083 36.843 18.576 39.683 20.469 7.3058 4.8705 8.5729 10.375 8.5729 10.375" fill="none" stroke="#ff5b5b" stroke-linecap="round" stroke-linejoin="round" stroke-opacity=".99602" stroke-width="2.5" style="paint-order:stroke fill markers"/>
 <path d="m48.965 56.668 89.293 12.222-2.6097 18.135-91.881-16.131z" fill="#ffacac" stroke="#ffacac" stroke-linecap="round" stroke-linejoin="round" stroke-width="3" style="paint-order:stroke fill markers"/>
 <path transform="rotate(6.8996)" d="m69.824 40.136q0 0.6985-0.1905 1.8098-0.254 1.4922-0.3175 1.778-0.09525 0.98425-0.3175 5.8102-0.1905 4.826-0.1905 5.334 0 3.048 0.66675 4.572-0.53975 0.889-1.2382 0.889-0.73025 0-1.3018-0.5715-0.5715-0.53975-0.635-1.27-1.4922 1.3652-3.048 1.3652-2.3178 0-3.5878-1.6192-1.1748-1.4605-1.1748-3.8418 0-2.794 1.143-5.6832 1.4605-3.6512 3.81-3.6512 1.397 0 2.8575 1.2382 0.15875-1.4922 0.15875-7.62 0-0.5715 0.85725-0.5715 1.016 0 1.7462 0.508 0.762 0.508 0.762 1.524zm-3.683 10.763q0-1.0795-0.47625-1.9685-0.60325-1.0795-1.5875-1.0795-1.4288 0-2.1908 2.8258-0.5715 2.032-0.5715 4.0005 0 2.9528 1.7145 2.9528 1.778 0 2.5718-2.6352 0.53975-1.778 0.53975-4.0958zm15.748 5.7468q0 1.5875-2.159 2.4765-1.6828 0.6985-3.5242 0.6985-4.8895 0-4.8895-5.5562 0-2.286 1.1112-5.08 1.3652-3.429 3.302-3.429 1.7462 0 3.7465 1.5558 2.032 1.5558 2.032 3.2385 0 2.0955-1.8732 3.3338-1.651 1.1112-3.937 1.1112-0.4445 0-1.4288-0.53975 0.127 3.0162 1.778 3.0162 1.397 0 2.7305-0.79375 1.3652-0.79375 1.7462-0.79375 1.3652 0 1.3652 0.762zm-3.4608-6.0008q0-0.79375-0.47625-1.4922-0.4445-0.73025-1.2065-0.73025-1.0478 0-1.6192 0.92075-0.47625 0.79375-0.47625 1.8732 0 0.60325 0.41275 0.98425t1.0478 0.381q2.3178 0 2.3178-1.9368zm15.462 5.588q0 1.4922-1.27 2.6035-1.397 1.2065-3.7465 1.2065-1.016 0.03175-2.1908-0.41275-3.81-1.4288-3.81-2.3178 0-1.397 2.0002-1.397 0.28575 0 0.60325 0.03175 0.09525 0.9525 1.524 1.524 1.2382 0.508 2.3812 0.41275 0.92075-0.0635 0.92075-0.66675 0-0.09525-0.0635-0.28575-0.03175-0.1905-0.03175-0.28575 0-0.127-1.2065-0.508-1.3652-0.41275-1.524-0.47625-3.6195-2.159-3.6195-5.207 0-1.8415 1.0478-3.3972 1.1748-1.7145 2.921-1.7145 1.3018 0 2.9528 1.016 1.6828 1.016 2.0638 2.1908 0.254 0.8255 0.254 1.3652 0 0.5715-0.15875 0.9525-0.1905 0.47625-0.381 0.9525-0.60325 0.41275-1.2065 0.41275-0.3175 0-1.0795-0.381-0.73025-0.41275-0.73025-0.6985 0-0.127 0.381-0.8255 0.22225-0.41275 0.22225-0.6985 0-1.905-1.4922-1.905-0.889 0-1.3652 1.143-0.34925 0.889-0.34925 1.905 0 1.27 1.8098 2.286 1.651 0.73025 3.3338 1.4922 1.8098 0.8255 1.8098 1.6828zm14.065 4.191q-1.2065 0.889-1.905 0.889-0.92075 0-2.667-1.905-1.2382-1.3335-2.4448-2.6988-0.6985-0.8255-2.2225-2.3178l-0.09525 0.0635v2.794q0 0.254 0.1905 0.762 0.22225 0.47625 0.22225 0.762 0 0.4445-0.47625 0.762-0.4445 0.34925-0.92075 0.34925-0.8255 0-1.3652-0.53975t-0.53975-1.3652v-4.191q0-0.381 0.09525-1.143 0.127-0.79375 0.127-1.1748v-8.5408q0-1.9368-0.28575-3.1115-0.127-0.53975-0.127-0.8255 0-0.60325 0.73025-1.0795 0.635-0.4445 1.27-0.4445 0.47625 0 1.016 0.381 0.5715 0.34925 0.5715 0.79375 0 0.127-0.1905 0.889t-0.1905 2.3495q0 0.508-0.09525 8.4772 0.127-0.127 3.429-3.1432 2.7305-2.54 3.2068-2.54 1.6828 0 1.6192 2.0638v0.3175q-1.3652 0.79375-3.5242 2.5082-2.7305 2.1272-2.7305 2.8258 0 0.0635 1.7145 2.0002 1.6192 1.8415 2.032 2.286 1.905 2.0002 3.556 2.7305zm6.4769-12.351q0 0.85725-2.6352 1.2065-0.0635 0.6985-0.0635 3.175v2.0955q0 0.635 0.1905 1.8732 0.22225 1.2382 0.22225 1.8415 0 0.508-0.508 0.92075-0.508 0.381-1.016 0.381-0.79375 0-1.3335-1.3652-0.41275-1.0478-0.41275-2.032v-6.731q-1.4605-0.22225-1.6828-0.28575-0.8255-0.254-0.8255-0.73025 0-0.127 0.0635-0.28575 0.8255-1.1748 1.8415-1.1748 0.0635 0 0.1905 0 0.127 0.03175 0.1905 0.03175 0.66675 0 0.635-1.5558v-2.3178q-0.1905-0.34925-0.1905-0.60325 0-0.41275 0.47625-0.73025 0.508-0.34925 0.9525-0.34925 0.66675 0 1.27 0.635 0.60325 0.60325 0.60325 1.3018 0 0.762-0.254 1.524-0.22225 0.73025-0.1905 1.524v0.127q2.4765 0.254 2.4765 1.524zm11.843 5.1118q0 2.8575-1.4288 4.8895-1.651 2.3178-4.3815 2.3178-2.794 0-4.2228-1.905-1.3018-1.6828-1.3018-4.572 0-2.8575 1.4288-5.3975 1.651-3.0162 4.2862-3.0162 0.8255 0 2.0638 0.73025 3.556 2.1272 3.556 6.9532zm-2.794-0.0635q0-4.8578-2.3495-4.8578-1.6828 0-2.54 2.0638-0.635 1.5558-0.635 3.5242 0 4.2228 2.5082 4.2228 1.6192 0 2.413-1.7462 0.60325-1.3335 0.60325-3.2068zm15.589-1.2382q0 3.2385-1.143 5.4928-1.4288 2.921-4.318 2.921-1.5558 0-2.667-0.889 0 0.34925 0 0.9525 0 0.6985 0 0.9525 0 3.048 0.6985 4.7942 0.3175 0.6985 0.3175 0.889 0 1.0795-1.27 1.0795-0.9525 0-1.4288-0.34925-0.34925-0.22225-0.6985-1.5875-0.28575-1.2065-0.28575-1.8415v-7.6518q0-1.0478 0.127-2.8575 0.127-2.032 0.15875-2.8258 0.0317-0.79375 0-2.0955-0.0318-1.651-0.0318-2.1272 0-2.6988 1.778-2.6988 0.4445 0 0.8255 0.3175 0.381 0.28575 0.381 0.6985 0 0.6985-0.15875 2.54 1.2382-1.7462 2.9845-1.7462 2.3495 0 3.6195 1.905 1.1112 1.651 1.1112 4.1275zm-2.8258-0.28575q0-3.429-1.4605-3.429-0.635 0-1.651 1.2382-1.9685 2.3812-2.159 6.5722 0.34925 0.1905 1.2382 1.3335 0.6985 0.85725 1.397 0.85725 2.6352 0 2.6352-6.5722z" stroke-width="0" style="paint-order:stroke fill markers" aria-label="desktop"/>
</svg>
