<?xml version="1.0" encoding="UTF-8" standalone="no"?>
<!-- Created with Inkscape (http://www.inkscape.org/) -->

<svg
   width="200mm"
   height="95mm"
   viewBox="0 0 200 95"
   version="1.1"
   id="svg1"
   sodipodi:docname="stlite-desktop-banner-pathify.svg"
   inkscape:version="1.3 (0e150ed, 2023-07-21)"
   xmlns:inkscape="http://www.inkscape.org/namespaces/inkscape"
   xmlns:sodipodi="http://sodipodi.sourceforge.net/DTD/sodipodi-0.dtd"
   xmlns="http://www.w3.org/2000/svg"
   xmlns:svg="http://www.w3.org/2000/svg">
  <sodipodi:namedview
     id="namedview1"
     pagecolor="#ffffff"
     bordercolor="#000000"
     borderopacity="0.25"
     inkscape:showpageshadow="2"
     inkscape:pageopacity="0.0"
     inkscape:pagecheckerboard="0"
     inkscape:deskcolor="#d1d1d1"
     inkscape:document-units="mm"
     inkscape:zoom="1.0019356"
     inkscape:cx="404.71664"
     inkscape:cy="222.5692"
     inkscape:window-width="1392"
     inkscape:window-height="1027"
     inkscape:window-x="459"
     inkscape:window-y="41"
     inkscape:window-maximized="0"
     inkscape:current-layer="layer1" />
  <defs
     id="defs1" />
  <g
     inkscape:label="Layer 1"
     inkscape:groupmode="layer"
     id="layer1">
    <text
       xml:space="preserve"
       style="font-size:14.1111px;line-height:0;fill:#ff0000;stroke:#fe0202;stroke-width:0.264583;stroke-linejoin:bevel"
       x="6.0831008"
       y="13.940439"
       id="text1"><tspan
         sodipodi:role="line"
         id="tspan1"
         style="stroke-width:0.264583"
         x="6.0831008"
         y="13.940439"></tspan></text>
    <path
       style="font-weight:bold;font-size:14.1111px;line-height:1;font-family:Helvetica;-inkscape-font-specification:'Helvetica Bold';white-space:pre;inline-size:150.552;stroke:#000000;stroke-width:0;stroke-linejoin:bevel"
       d="M 11.837505,12.106175 H 8.0961346 L 7.3933357,14.193901 H 5.1746959 L 8.7989336,4.0377674 H 11.196718 L 14.793395,14.193901 H 12.492073 Z M 11.244949,10.356068 9.9771553,6.35976 8.66802,10.356068 Z M 22.848021,3.9757558 v 1.598523 q -0.165364,-0.020671 -0.558105,-0.027561 -0.38585,-0.01378 -0.537434,0.1722546 -0.144694,0.1791448 -0.144694,0.3996308 v 0.6338971 h 1.288465 V 8.1374279 H 21.607788 V 14.193901 H 19.650975 V 8.1374279 H 18.555436 V 6.7525006 h 1.074869 v -0.482313 q 0,-1.2057825 0.406521,-1.6605348 0.427191,-0.6752382 2.060165,-0.6752382 0.186035,0 0.337619,0.01378 0.151584,0.00689 0.413411,0.027561 z m 1.460719,3.5208848 q 0.778591,-0.9921867 2.673392,-0.9921867 1.233344,0 2.191079,0.4892032 0.957736,0.4892031 0.957736,1.8465697 V 12.28532 q 0,0.358289 0.01378,0.868163 0.02067,0.38585 0.117133,0.523654 0.09646,0.137804 0.289388,0.227376 v 0.289388 h -2.135958 q -0.08957,-0.227376 -0.124023,-0.427191 -0.03445,-0.199816 -0.05512,-0.454753 -0.406521,0.440972 -0.937065,0.751031 -0.633897,0.365179 -1.433159,0.365179 -1.019747,0 -1.688095,-0.578775 -0.661458,-0.585666 -0.661458,-1.653645 0,-1.384927 1.067979,-2.005044 0.585666,-0.3376189 1.722546,-0.4823128 l 0.668348,-0.082682 q 0.544325,-0.068902 0.778591,-0.1722547 0.420301,-0.1791448 0.420301,-0.558105 0,-0.4616424 -0.323838,-0.6338971 -0.316949,-0.1791448 -0.937066,-0.1791448 -0.695908,0 -0.985296,0.3445093 -0.206706,0.2549368 -0.275607,0.6890185 h -1.894802 q 0.06201,-0.9852965 0.551215,-1.6191936 z m 1.46072,5.2778824 q 0.275607,0.227376 0.675238,0.227376 0.633897,0 1.164441,-0.37207 0.537435,-0.37207 0.558105,-1.357367 v -0.730359 q -0.186035,0.117133 -0.37896,0.192925 -0.186035,0.0689 -0.516764,0.130913 l -0.440972,0.08268 q -0.620116,0.110243 -0.888834,0.268717 -0.454752,0.268717 -0.454752,0.833712 0,0.502984 0.282498,0.72347 z M 37.048695,7.028108 q 0.881944,0.5649952 1.012858,1.9430323 H 36.09785 q -0.04134,-0.3789602 -0.213596,-0.5994461 -0.323839,-0.3996308 -1.10243,-0.3996308 -0.640787,0 -0.916394,0.1998154 -0.268718,0.1998154 -0.268718,0.4685326 0,0.3376191 0.289388,0.4892032 0.289388,0.1584743 2.046385,0.5443247 1.171332,0.2756074 1.756998,0.8337127 0.578775,0.564995 0.578775,1.412488 0,1.11621 -0.833712,1.825899 -0.826822,0.702799 -2.563149,0.702799 -1.770778,0 -2.618271,-0.74414 -0.840602,-0.75103 -0.840602,-1.908582 h 1.991263 q 0.06201,0.523655 0.268717,0.744141 0.36518,0.39274 1.350477,0.39274 0.578775,0 0.916395,-0.172255 0.344509,-0.172254 0.344509,-0.516763 0,-0.330729 -0.275608,-0.502984 Q 35.73267,11.56874 33.961892,11.148439 32.687208,10.83149 32.163554,10.356068 31.6399,9.887535 31.6399,9.0055913 q 0,-1.0404181 0.813042,-1.7845581 0.819932,-0.7510302 2.301322,-0.7510302 1.405597,0 2.294431,0.558105 z m 6.111593,5.767085 v 1.46761 l -0.930175,0.03445 q -1.391817,0.04823 -1.901691,-0.482313 -0.330729,-0.337619 -0.330729,-1.040418 V 8.1512083 H 38.950385 V 6.7525006 h 1.047308 V 4.6578841 h 1.943032 v 2.0946165 h 1.219563 v 1.3987077 h -1.219563 v 3.9687467 q 0,0.461643 0.117133,0.578776 0.117134,0.110243 0.71658,0.110243 0.08957,0 0.186035,0 0.103352,-0.0069 0.199815,-0.01378 z m 7.689449,-0.806151 q -0.07579,0.668348 -0.695909,1.357366 -0.964626,1.09554 -2.700953,1.09554 -1.433158,0 -2.528698,-0.923285 -1.095539,-0.923285 -1.095539,-3.004121 0,-1.9499226 0.985296,-2.9903406 0.992187,-1.0404181 2.570039,-1.0404181 0.937066,0 1.688096,0.3513995 0.75103,0.3513995 1.240233,1.1093199 0.440972,0.668348 0.571886,1.5502918 0.07579,0.5167635 0.06201,1.4882805 h -5.140078 q 0.04134,1.12999 0.709689,1.584742 0.406521,0.282498 0.978406,0.282498 0.606337,0 0.985297,-0.344509 0.206705,-0.186035 0.36518,-0.516764 z M 48.906704,9.6877197 Q 48.858473,8.9091287 48.431282,8.5094979 48.01098,8.102977 47.383973,8.102977 q -0.682128,0 -1.061088,0.4271915 -0.37207,0.4271915 -0.468533,1.1575512 z m 7.138231,-1.1920022 q -1.185112,0 -1.591633,0.7717008 Q 54.225926,9.7015 54.225926,10.604114 v 3.589787 H 52.248442 V 6.6835987 h 1.874131 V 7.992734 q 0.454752,-0.7510303 0.792371,-1.0266377 0.551215,-0.4616424 1.433159,-0.4616424 0.05512,0 0.08957,0.00689 0.04134,0 0.172255,0.00689 v 2.0119342 q -0.186035,-0.020671 -0.330729,-0.027561 -0.144694,-0.00689 -0.234266,-0.00689 z M 67.379292,14.193901 66.20107,8.7230937 65.009068,14.193901 H 62.969573 L 60.861176,6.6835987 h 2.108397 l 1.171331,5.3881253 1.081759,-5.3881253 h 1.991264 l 1.143771,5.4087953 1.171331,-5.4087953 h 2.046386 l -2.177299,7.5103023 z m 5.560376,-6.6972604 q 0.778591,-0.9921867 2.673392,-0.9921867 1.233344,0 2.191079,0.4892032 0.957736,0.4892031 0.957736,1.8465697 V 12.28532 q 0,0.358289 0.01378,0.868163 0.02067,0.38585 0.117133,0.523654 0.09646,0.137804 0.289388,0.227376 v 0.289388 h -2.135958 q -0.08957,-0.227376 -0.124023,-0.427191 -0.03445,-0.199816 -0.05512,-0.454753 -0.406521,0.440972 -0.937065,0.751031 -0.633897,0.365179 -1.433159,0.365179 -1.019747,0 -1.688095,-0.578775 -0.661458,-0.585666 -0.661458,-1.653645 0,-1.384927 1.067979,-2.005044 0.585666,-0.3376189 1.722546,-0.4823128 L 75.60617,9.625708 q 0.544325,-0.068902 0.778591,-0.1722547 0.420302,-0.1791448 0.420302,-0.558105 0,-0.4616424 -0.323839,-0.6338971 -0.316949,-0.1791448 -0.937065,-0.1791448 -0.695909,0 -0.985297,0.3445093 -0.206706,0.2549368 -0.275607,0.6890185 h -1.894801 q 0.06201,-0.9852965 0.551214,-1.6191936 z m 1.46072,5.2778824 q 0.275607,0.227376 0.675238,0.227376 0.633897,0 1.164441,-0.37207 0.537435,-0.37207 0.558105,-1.357367 v -0.730359 q -0.186035,0.117133 -0.37896,0.192925 -0.186035,0.0689 -0.516764,0.130913 l -0.440972,0.08268 q -0.620116,0.110243 -0.888834,0.268717 -0.454752,0.268717 -0.454752,0.833712 0,0.502984 0.282498,0.72347 z m 9.157058,-0.551215 1.550292,-5.5397093 h 2.087726 l -2.576929,7.3862793 q -0.74414,2.135957 -1.178222,2.645831 -0.434082,0.516764 -1.736327,0.516764 -0.261827,0 -0.420301,-0.0069 -0.158474,0 -0.475423,-0.02067 V 15.63395 l 0.248047,0.01378 q 0.289388,0.01378 0.551215,-0.02067 0.261827,-0.03445 0.440972,-0.158475 0.172254,-0.117133 0.316948,-0.489203 0.151584,-0.37207 0.124023,-0.454752 L 79.733393,6.6835987 h 2.184189 z m 12.154291,0.571885 v 1.46761 l -0.930175,0.03445 q -1.391818,0.04823 -1.901691,-0.482313 -0.330729,-0.337619 -0.330729,-1.040418 V 8.1512083 H 91.501833 V 6.7525006 h 1.047309 V 4.6578841 h 1.943032 v 2.0946165 h 1.219563 v 1.3987077 h -1.219563 v 3.9687467 q 0,0.461643 0.117133,0.578776 0.117133,0.110243 0.71658,0.110243 0.08957,0 0.186035,0 0.103352,-0.0069 0.199815,-0.01378 z m 7.524083,-5.1607487 q 0.95084,1.1920021 0.95084,2.8180857 0,1.653645 -0.95084,2.831867 -0.95085,1.171331 -2.88699,1.171331 -1.936143,0 -2.886988,-1.171331 -0.950846,-1.178222 -0.950846,-2.831867 0,-1.6260836 0.950846,-2.8180857 0.950845,-1.1920021 2.886988,-1.1920021 1.93614,0 2.88699,1.1920021 z m -2.89388,0.4685327 q -0.861274,0 -1.329806,0.6132265 -0.461643,0.6063363 -0.461643,1.7363265 0,1.129991 0.461643,1.743217 0.468532,0.613227 1.329806,0.613227 0.86127,0 1.32292,-0.613227 0.46164,-0.613226 0.46164,-1.743217 0,-1.1299902 -0.46164,-1.7363265 -0.46165,-0.6132265 -1.32292,-0.6132265 z m 13.24983,6.290739 q -0.93018,0 -1.49517,-0.37207 -0.33762,-0.220486 -0.73036,-0.7717 v 0.943955 h -1.92237 V 4.0515478 h 1.95682 v 3.6104573 q 0.37207,-0.5236541 0.81993,-0.7992616 0.53054,-0.3445092 1.35048,-0.3445092 1.48139,0 2.3151,1.0679787 0.8406,1.0679788 0.8406,2.756074 0,1.750107 -0.82682,2.900768 -0.82682,1.150661 -2.30821,1.150661 z m 1.07487,-3.844723 q 0,-0.7992617 -0.20671,-1.3229158 -0.39274,-0.9921867 -1.44694,-0.9921867 -1.06798,0 -1.46761,0.9715162 -0.2067,0.5167639 -0.2067,1.3366963 0,0.964626 0.42719,1.598523 0.42719,0.633897 1.30224,0.633897 0.75792,0 1.17822,-0.613227 0.42031,-0.613226 0.42031,-1.612303 z m 8.282,2.583819 q -0.0276,0.03445 -0.13781,0.206706 -0.11024,0.172255 -0.26182,0.303168 -0.46165,0.413411 -0.89573,0.564995 -0.42719,0.151585 -1.00596,0.151585 -1.66743,0 -2.2462,-1.198893 -0.32384,-0.661458 -0.32384,-1.949922 V 6.6835987 h 2.01193 v 4.5268523 q 0,0.640787 0.15158,0.964626 0.26872,0.571885 1.0542,0.571885 1.00597,0 1.37804,-0.813042 0.19293,-0.440972 0.19293,-1.164441 V 6.6835987 h 1.99126 v 7.5103023 h -1.90858 z m 5.8222,-6.4492133 v 7.5103023 h -1.99126 V 6.6835987 Z m 0,-2.7078429 v 1.8121188 h -1.99126 V 3.9757558 Z m 1.94304,0.062012 h 1.9637 V 14.193901 h -1.9637 z m 10.71423,0.01378 V 14.193901 h -1.90858 v -1.040418 q -0.4203,0.668348 -0.95774,0.971516 -0.53743,0.303168 -1.33669,0.303168 -1.31603,0 -2.21864,-1.061088 -0.89573,-1.067979 -0.89573,-2.735404 0,-1.9223617 0.88195,-3.0247914 0.88883,-1.1024297 2.37022,-1.1024297 0.68213,0 1.21267,0.3031682 0.53055,0.2962779 0.86128,0.8268222 V 4.0515478 Z m -5.29166,6.4354332 q 0,1.040418 0.41341,1.660535 0.40652,0.627007 1.24023,0.627007 0.83371,0 1.2678,-0.620117 0.43408,-0.620117 0.43408,-1.605413 0,-1.3780373 -0.69591,-1.9705932 -0.42719,-0.3582897 -0.99219,-0.3582897 -0.86127,0 -1.26779,0.6545676 -0.39963,0.6476775 -0.39963,1.6123033 z M 6.0152986,22.002235 q 0.7785909,-0.992187 2.673392,-0.992187 1.2333432,0 2.1910794,0.489204 0.957735,0.489203 0.957735,1.846569 v 3.445093 q 0,0.35829 0.01378,0.868164 0.02067,0.38585 0.117133,0.523654 0.09646,0.137803 0.289388,0.227376 v 0.289388 h -2.135958 q -0.08957,-0.227377 -0.1240231,-0.427192 -0.034451,-0.199815 -0.055122,-0.454752 -0.406521,0.440972 -0.9370653,0.75103 -0.6338971,0.36518 -1.4331586,0.36518 -1.0197475,0 -1.6880955,-0.578776 -0.6614578,-0.585665 -0.6614578,-1.653644 0,-1.384928 1.0679788,-2.005044 0.5856658,-0.337619 1.7225464,-0.482313 l 0.668348,-0.08268 q 0.5443247,-0.0689 0.778591,-0.172254 0.4203013,-0.179145 0.4203013,-0.558105 0,-0.461643 -0.3238387,-0.633897 -0.3169486,-0.179145 -0.9370653,-0.179145 -0.6959087,0 -0.9852965,0.344509 -0.2067056,0.254937 -0.2756074,0.689019 H 5.4640837 q 0.062012,-0.985297 0.5512149,-1.619194 z m 1.4607193,5.277882 q 0.2756074,0.227376 0.6752382,0.227376 0.6338971,0 1.1644414,-0.37207 0.5374345,-0.37207 0.558105,-1.357366 v -0.73036 q -0.186035,0.117133 -0.3789602,0.192925 -0.186035,0.0689 -0.5167639,0.130914 l -0.4409719,0.08268 q -0.6201167,0.110243 -0.888834,0.268717 -0.4547522,0.268718 -0.4547522,0.833713 0,0.502983 0.2824976,0.723469 z m 9.6393701,-4.637095 q -0.999077,0 -1.371147,0.847493 -0.192926,0.447862 -0.192926,1.143771 v 4.06521 h -1.956812 v -7.496522 h 1.894801 v 1.095539 q 0.37896,-0.578775 0.716579,-0.833712 0.606336,-0.454753 1.536511,-0.454753 1.164442,0 1.901692,0.613227 0.74414,0.606336 0.74414,2.018824 v 5.057397 h -2.011934 v -4.568194 q 0,-0.592555 -0.158475,-0.909504 -0.289388,-0.578776 -1.102429,-0.578776 z m 11.920022,-4.08588 v 10.142354 h -1.908582 v -1.040418 q -0.420301,0.668348 -0.957736,0.971516 -0.537434,0.303168 -1.336696,0.303168 -1.316025,0 -2.218639,-1.061089 -0.895724,-1.067978 -0.895724,-2.735403 0,-1.922362 0.881943,-3.024792 0.888834,-1.10243 2.370224,-1.10243 0.682129,0 1.212673,0.303169 0.530544,0.296278 0.861273,0.826822 v -3.582897 z m -5.291663,6.435434 q 0,1.040418 0.413411,1.660534 0.406521,0.627007 1.240234,0.627007 0.833712,0 1.267794,-0.620116 0.434081,-0.620117 0.434081,-1.605414 0,-1.378037 -0.695908,-1.970593 -0.427192,-0.358289 -0.992187,-0.358289 -0.861273,0 -1.267794,0.654567 -0.399631,0.647678 -0.399631,1.612304 z m 16.171264,-3.458873 q 0.881944,0.564995 1.012858,1.943032 h -1.963703 q -0.04134,-0.37896 -0.213596,-0.599446 -0.323839,-0.399631 -1.10243,-0.399631 -0.640787,0 -0.916395,0.199815 -0.268717,0.199816 -0.268717,0.468533 0,0.337619 0.289388,0.489203 0.289388,0.158474 2.046385,0.544325 1.171332,0.275607 1.756998,0.833712 0.578775,0.564995 0.578775,1.412488 0,1.11621 -0.833712,1.8259 -0.826823,0.702798 -2.563149,0.702798 -1.770778,0 -2.618271,-0.74414 -0.840603,-0.75103 -0.840603,-1.908581 h 1.991264 q 0.06201,0.523654 0.268717,0.74414 0.36518,0.392741 1.350477,0.392741 0.578775,0 0.916394,-0.172255 0.34451,-0.172255 0.34451,-0.516764 0,-0.330729 -0.275608,-0.502984 -0.275607,-0.172254 -2.046385,-0.592555 -1.274684,-0.316949 -1.798338,-0.792372 -0.523654,-0.468532 -0.523654,-1.350476 0,-1.040418 0.813041,-1.784558 0.819933,-0.751031 2.301322,-0.751031 1.405598,0 2.294432,0.558106 z m 9.460225,2.756074 v 4.409719 h -2.005044 v -4.568194 q 0,-0.606336 -0.206706,-0.978406 -0.268717,-0.523654 -1.019747,-0.523654 -0.778591,0 -1.185112,0.523654 -0.399631,0.516764 -0.399631,1.48139 v 4.06521 H 42.602184 V 18.577813 h 1.956812 V 22.1676 q 0.427192,-0.654568 0.985297,-0.909505 0.564995,-0.261827 1.185112,-0.261827 0.695909,0 1.260904,0.241157 0.571885,0.241156 0.937065,0.737249 0.310058,0.420302 0.37896,0.868164 0.0689,0.440972 0.0689,1.446939 z m 2.115286,-2.287542 q 0.778591,-0.992187 2.673392,-0.992187 1.233343,0 2.191079,0.489204 0.957736,0.489203 0.957736,1.846569 v 3.445093 q 0,0.35829 0.01378,0.868164 0.02067,0.38585 0.117133,0.523654 0.09646,0.137803 0.289388,0.227376 v 0.289388 h -2.135957 q -0.08957,-0.227377 -0.124024,-0.427192 -0.03445,-0.199815 -0.05512,-0.454752 -0.406521,0.440972 -0.937065,0.75103 -0.633897,0.36518 -1.433159,0.36518 -1.019747,0 -1.688095,-0.578776 -0.661458,-0.585665 -0.661458,-1.653644 0,-1.384928 1.067979,-2.005044 0.585665,-0.337619 1.722546,-0.482313 l 0.668348,-0.08268 q 0.544325,-0.0689 0.778591,-0.172254 0.420301,-0.179145 0.420301,-0.558105 0,-0.461643 -0.323838,-0.633897 -0.316949,-0.179145 -0.937066,-0.179145 -0.695908,0 -0.985296,0.344509 -0.206706,0.254937 -0.275608,0.689019 h -1.894801 q 0.06201,-0.985297 0.551215,-1.619194 z m 1.460719,5.277882 q 0.275608,0.227376 0.675239,0.227376 0.633897,0 1.164441,-0.37207 0.537434,-0.37207 0.558105,-1.357366 v -0.73036 q -0.186035,0.117133 -0.37896,0.192925 -0.186035,0.0689 -0.516764,0.130914 l -0.440972,0.08268 q -0.620117,0.110243 -0.888834,0.268717 -0.454752,0.268718 -0.454752,0.833713 0,0.502983 0.282497,0.723469 z m 9.880528,-4.278805 q -1.185111,0 -1.591632,0.771701 -0.227377,0.434082 -0.227377,1.336696 v 3.589787 h -1.977483 v -7.510303 h 1.874131 v 1.309135 q 0.454752,-0.75103 0.792371,-1.026637 0.551215,-0.461643 1.433159,-0.461643 0.05512,0 0.08957,0.0069 0.04134,0 0.172255,0.0069 v 2.011934 q -0.186035,-0.02067 -0.330729,-0.02756 -0.144694,-0.0069 -0.234267,-0.0069 z m 8.1442,3.493324 q -0.07579,0.668348 -0.695909,1.357367 -0.964626,1.095539 -2.700953,1.095539 -1.433158,0 -2.528698,-0.923285 -1.095539,-0.923284 -1.095539,-3.004121 0,-1.949922 0.985296,-2.99034 0.992187,-1.040418 2.57004,-1.040418 0.937065,0 1.688095,0.351399 0.75103,0.3514 1.240233,1.10932 0.440972,0.668348 0.571886,1.550292 0.07579,0.516764 0.06201,1.48828 h -5.140079 q 0.04134,1.129991 0.709689,1.584743 0.406521,0.282497 0.978407,0.282497 0.606336,0 0.985296,-0.344509 0.206706,-0.186035 0.36518,-0.516764 z m -1.943032,-2.301322 q -0.04823,-0.778591 -0.475423,-1.178222 -0.420302,-0.406521 -1.047308,-0.406521 -0.682129,0 -1.061089,0.427192 -0.37207,0.427191 -0.468533,1.157551 z m 14.117989,-5.636172 v 10.142354 h -1.908581 v -1.040418 q -0.420301,0.668348 -0.957736,0.971516 -0.537434,0.303168 -1.336696,0.303168 -1.316025,0 -2.21864,-1.061089 -0.895724,-1.067978 -0.895724,-2.735403 0,-1.922362 0.881944,-3.024792 0.888834,-1.10243 2.370224,-1.10243 0.682128,0 1.212672,0.303169 0.530545,0.296278 0.861274,0.826822 v -3.582897 z m -5.291662,6.435434 q 0,1.040418 0.413411,1.660534 0.406521,0.627007 1.240233,0.627007 0.833713,0 1.267794,-0.620116 0.434082,-0.620117 0.434082,-1.605414 0,-1.378037 -0.695909,-1.970593 -0.427191,-0.358289 -0.992186,-0.358289 -0.861274,0 -1.267794,0.654567 -0.399631,0.647678 -0.399631,1.612304 z m 7.358717,-2.990341 q 0.778591,-0.992187 2.673392,-0.992187 1.233343,0 2.191079,0.489204 0.957736,0.489203 0.957736,1.846569 v 3.445093 q 0,0.35829 0.01378,0.868164 0.02067,0.38585 0.117133,0.523654 0.09646,0.137803 0.289388,0.227376 v 0.289388 h -2.135957 q -0.08957,-0.227377 -0.124024,-0.427192 -0.03445,-0.199815 -0.05512,-0.454752 -0.406521,0.440972 -0.937065,0.75103 -0.633897,0.36518 -1.433159,0.36518 -1.019747,0 -1.688095,-0.578776 -0.661458,-0.585665 -0.661458,-1.653644 0,-1.384928 1.067978,-2.005044 0.585666,-0.337619 1.722547,-0.482313 l 0.668348,-0.08268 q 0.544325,-0.0689 0.778591,-0.172254 0.420301,-0.179145 0.420301,-0.558105 0,-0.461643 -0.323839,-0.633897 -0.316948,-0.179145 -0.937065,-0.179145 -0.695909,0 -0.985296,0.344509 -0.206706,0.254937 -0.275608,0.689019 h -1.894801 q 0.06201,-0.985297 0.551215,-1.619194 z m 1.460719,5.277882 q 0.275608,0.227376 0.675239,0.227376 0.633897,0 1.164441,-0.37207 0.537434,-0.37207 0.558105,-1.357366 v -0.73036 q -0.186035,0.117133 -0.37896,0.192925 -0.186035,0.0689 -0.516764,0.130914 l -0.440972,0.08268 q -0.620117,0.110243 -0.888834,0.268717 -0.454752,0.268718 -0.454752,0.833713 0,0.502983 0.282497,0.723469 z m 9.542909,0.02067 v 1.467609 l -0.930175,0.03445 q -1.391817,0.04823 -1.901691,-0.482313 -0.330729,-0.337619 -0.330729,-1.040418 v -4.623314 h -1.047308 v -1.398708 h 1.047308 v -2.094616 h 1.943032 v 2.094616 h 1.219563 v 1.398708 h -1.219563 v 3.968747 q 0,0.461642 0.117134,0.578775 0.117133,0.110243 0.716579,0.110243 0.08957,0 0.186035,0 0.103353,-0.0069 0.199815,-0.01378 z m 1.5434,-5.298553 q 0.778591,-0.992187 2.673391,-0.992187 1.23334,0 2.19108,0.489204 0.95774,0.489203 0.95774,1.846569 v 3.445093 q 0,0.35829 0.0138,0.868164 0.0207,0.38585 0.11713,0.523654 0.0965,0.137803 0.28939,0.227376 v 0.289388 h -2.13596 q -0.0896,-0.227377 -0.12402,-0.427192 -0.0345,-0.199815 -0.0551,-0.454752 -0.40652,0.440972 -0.93706,0.75103 -0.6339,0.36518 -1.433159,0.36518 -1.019748,0 -1.688096,-0.578776 -0.661458,-0.585665 -0.661458,-1.653644 0,-1.384928 1.067979,-2.005044 0.585666,-0.337619 1.722546,-0.482313 l 0.668348,-0.08268 q 0.54433,-0.0689 0.77859,-0.172254 0.4203,-0.179145 0.4203,-0.558105 0,-0.461643 -0.32384,-0.633897 -0.31694,-0.179145 -0.93706,-0.179145 -0.69591,0 -0.985298,0.344509 -0.206705,0.254937 -0.275607,0.689019 h -1.894801 q 0.06201,-0.985297 0.551215,-1.619194 z m 1.460719,5.277882 q 0.275607,0.227376 0.675238,0.227376 0.633894,0 1.164444,-0.37207 0.53743,-0.37207 0.5581,-1.357366 v -0.73036 q -0.18603,0.117133 -0.37896,0.192925 -0.18603,0.0689 -0.51676,0.130914 l -0.44097,0.08268 q -0.62012,0.110243 -0.888837,0.268717 -0.454753,0.268718 -0.454753,0.833713 0,0.502983 0.282498,0.723469 z m 10.307722,-5.277882 q 0.77859,-0.992187 2.67339,-0.992187 1.23334,0 2.19108,0.489204 0.95774,0.489203 0.95774,1.846569 v 3.445093 q 0,0.35829 0.0138,0.868164 0.0207,0.38585 0.11713,0.523654 0.0965,0.137803 0.28939,0.227376 v 0.289388 H 113.64 q -0.0896,-0.227377 -0.12402,-0.427192 -0.0344,-0.199815 -0.0551,-0.454752 -0.40652,0.440972 -0.93706,0.75103 -0.6339,0.36518 -1.43316,0.36518 -1.01975,0 -1.68809,-0.578776 -0.66146,-0.585665 -0.66146,-1.653644 0,-1.384928 1.06798,-2.005044 0.58566,-0.337619 1.72254,-0.482313 l 0.66835,-0.08268 q 0.54433,-0.0689 0.77859,-0.172254 0.4203,-0.179145 0.4203,-0.558105 0,-0.461643 -0.32384,-0.633897 -0.31694,-0.179145 -0.93706,-0.179145 -0.69591,0 -0.9853,0.344509 -0.2067,0.254937 -0.2756,0.689019 h -1.89481 q 0.062,-0.985297 0.55122,-1.619194 z m 1.46072,5.277882 q 0.27561,0.227376 0.67524,0.227376 0.63389,0 1.16444,-0.37207 0.53743,-0.37207 0.5581,-1.357366 v -0.73036 q -0.18603,0.117133 -0.37896,0.192925 -0.18603,0.0689 -0.51676,0.130914 l -0.44097,0.08268 q -0.62012,0.110243 -0.88884,0.268717 -0.45475,0.268718 -0.45475,0.833713 0,0.502983 0.2825,0.723469 z m 12.39544,-5.284772 q 0.90951,0.971516 0.90951,2.852537 0,1.984373 -0.89573,3.024791 -0.88883,1.040418 -2.29443,1.040418 -0.89572,0 -1.48828,-0.447862 -0.32384,-0.248046 -0.63389,-0.723469 v 3.913625 h -1.94304 V 21.189193 h 1.88102 v 1.10932 q 0.31695,-0.489203 0.67524,-0.771701 0.65457,-0.502983 1.55718,-0.502983 1.31603,0 2.23242,0.971516 z m -1.11621,2.948999 q 0,-0.868163 -0.39963,-1.536511 -0.39274,-0.668348 -1.28157,-0.668348 -1.06798,0 -1.46761,1.012857 -0.20671,0.537435 -0.20671,1.364257 0,1.309135 0.69591,1.83968 0.41341,0.310058 0.97841,0.310058 0.81993,0 1.24712,-0.633897 0.43408,-0.633897 0.43408,-1.688096 z m 9.73584,-2.948999 q 0.9095,0.971516 0.9095,2.852537 0,1.984373 -0.89572,3.024791 -0.88884,1.040418 -2.29444,1.040418 -0.89572,0 -1.48828,-0.447862 -0.32383,-0.248046 -0.63389,-0.723469 v 3.913625 h -1.94304 V 21.189193 h 1.88103 v 1.10932 q 0.31694,-0.489203 0.67523,-0.771701 0.65457,-0.502983 1.55719,-0.502983 1.31602,0 2.23242,0.971516 z m -1.11621,2.948999 q 0,-0.868163 -0.39964,-1.536511 -0.39274,-0.668348 -1.28157,-0.668348 -1.06798,0 -1.46761,1.012857 -0.20671,0.537435 -0.20671,1.364257 0,1.309135 0.69591,1.83968 0.41341,0.310058 0.97841,0.310058 0.81993,0 1.24712,-0.633897 0.43409,-0.633897 0.43409,-1.688096 z m 8.61962,-3.410641 q 0.88194,0.564995 1.01285,1.943032 h -1.9637 q -0.0413,-0.37896 -0.21359,-0.599446 -0.32384,-0.399631 -1.10243,-0.399631 -0.64079,0 -0.9164,0.199815 -0.26872,0.199816 -0.26872,0.468533 0,0.337619 0.28939,0.489203 0.28939,0.158474 2.04639,0.544325 1.17133,0.275607 1.75699,0.833712 0.57878,0.564995 0.57878,1.412488 0,1.11621 -0.83371,1.8259 -0.82683,0.702798 -2.56315,0.702798 -1.77078,0 -2.61827,-0.74414 -0.84061,-0.75103 -0.84061,-1.908581 h 1.99127 q 0.062,0.523654 0.26872,0.74414 0.36518,0.392741 1.35047,0.392741 0.57878,0 0.9164,-0.172255 0.34451,-0.172255 0.34451,-0.516764 0,-0.330729 -0.27561,-0.502984 -0.27561,-0.172254 -2.04639,-0.592555 -1.27468,-0.316949 -1.79834,-0.792372 -0.52365,-0.468532 -0.52365,-1.350476 0,-1.040418 0.81304,-1.784558 0.81993,-0.751031 2.30132,-0.751031 1.4056,0 2.29444,0.558106 z"
       id="text2"
       transform="translate(26.264512,7.7369565)"
       aria-label="A faster way to build and share data apps" />
    <path
       style="fill:none;fill-opacity:1;stroke:#ff5b5b;stroke-width:2.5;stroke-linecap:round;stroke-linejoin:round;stroke-dasharray:none;stroke-opacity:0.996016;paint-order:stroke fill markers"
       d="m 45.623573,51.328244 c 7.305781,-9.470458 9.621066,-7.466067 14.777556,-7.550226 5.933382,-0.09684 25.063962,0.883962 29.766597,0.366975 4.138216,-0.454937 10.704654,-5.121815 10.704654,-5.121815 0.88166,7.208333 36.84261,18.57562 39.68256,20.468912 7.30577,4.870523 8.57292,10.375199 8.57292,10.375199"
       id="path5"
       sodipodi:nodetypes="csscsc" />
    <path
       id="rect6"
       style="fill:#ffacac;fill-opacity:1;stroke:#ffacac;stroke-width:3;stroke-linecap:round;stroke-linejoin:round;stroke-dasharray:none;stroke-opacity:1;paint-order:stroke fill markers"
       d="M 52.038727,54.472055 140.67216,69.112757 137.1828,86.148234 48.569207,68.858307 Z"
       sodipodi:nodetypes="ccccc" />
    <path
       style="font-weight:bold;font-size:25.4px;line-height:1;font-family:Noteworthy;-inkscape-font-specification:'Noteworthy Bold';stroke:#000000;stroke-width:0;stroke-linecap:round;stroke-linejoin:round;paint-order:stroke fill markers"
       d="m 72.183223,39.541734 q 0,0.6985 -0.1905,1.80975 -0.254,1.49225 -0.3175,1.778 -0.09525,0.98425 -0.3175,5.81025 -0.1905,4.826 -0.1905,5.334 0,3.048 0.66675,4.572 -0.53975,0.889 -1.23825,0.889 -0.73025,0 -1.30175,-0.5715 -0.5715,-0.53975 -0.635,-1.27 -1.49225,1.36525 -3.048,1.36525 -2.31775,0 -3.58775,-1.61925 -1.17475,-1.4605 -1.17475,-3.84175 0,-2.794 1.143,-5.68325 1.4605,-3.65125 3.81,-3.65125 1.397,0 2.8575,1.23825 0.15875,-1.49225 0.15875,-7.62 0,-0.5715 0.85725,-0.5715 1.016,0 1.74625,0.508 0.762,0.508 0.762,1.524 z m -3.683,10.76325 q 0,-1.0795 -0.47625,-1.9685 -0.60325,-1.0795 -1.5875,-1.0795 -1.42875,0 -2.19075,2.82575 -0.5715,2.032 -0.5715,4.0005 0,2.95275 1.7145,2.95275 1.778,0 2.57175,-2.63525 0.53975,-1.778 0.53975,-4.09575 z m 15.747978,5.74675 q 0,1.5875 -2.159,2.4765 -1.68275,0.6985 -3.524249,0.6985 -4.8895,0 -4.8895,-5.55625 0,-2.286 1.11125,-5.08 1.36525,-3.429 3.302,-3.429 1.746249,0 3.746499,1.55575 2.032,1.55575 2.032,3.2385 0,2.0955 -1.87325,3.33375 -1.651,1.11125 -3.936999,1.11125 -0.4445,0 -1.42875,-0.53975 0.127,3.01625 1.778,3.01625 1.396999,0 2.730499,-0.79375 1.36525,-0.79375 1.74625,-0.79375 1.36525,0 1.36525,0.762 z m -3.46075,-6.00075 q 0,-0.79375 -0.47625,-1.49225 -0.4445,-0.73025 -1.2065,-0.73025 -1.047749,0 -1.619249,0.92075 -0.47625,0.79375 -0.47625,1.87325 0,0.60325 0.41275,0.98425 0.41275,0.381 1.04775,0.381 2.317749,0 2.317749,-1.93675 z m 15.4622,5.588 q 0,1.49225 -1.27,2.6035 -1.397,1.2065 -3.7465,1.2065 -1.016,0.03175 -2.19075,-0.41275 -3.81,-1.42875 -3.81,-2.31775 0,-1.397 2.00025,-1.397 0.28575,0 0.60325,0.03175 0.09525,0.9525 1.524,1.524 1.23825,0.508 2.38125,0.41275 0.92075,-0.0635 0.92075,-0.66675 0,-0.09525 -0.0635,-0.28575 -0.03175,-0.1905 -0.03175,-0.28575 0,-0.127 -1.2065,-0.508 -1.36525,-0.41275 -1.524,-0.47625 -3.6195,-2.159 -3.6195,-5.207 0,-1.8415 1.04775,-3.39725 1.17475,-1.7145 2.921,-1.7145 1.30175,0 2.95275,1.016 1.68275,1.016 2.06375,2.19075 0.254,0.8255 0.254,1.36525 0,0.5715 -0.15875,0.9525 -0.1905,0.47625 -0.381,0.9525 -0.60325,0.41275 -1.2065,0.41275 -0.3175,0 -1.0795,-0.381 -0.73025,-0.41275 -0.73025,-0.6985 0,-0.127 0.381,-0.8255 0.22225,-0.41275 0.22225,-0.6985 0,-1.905 -1.49225,-1.905 -0.889,0 -1.36525,1.143 -0.34925,0.889 -0.34925,1.905 0,1.27 1.80975,2.286 1.651,0.73025 3.33375,1.49225 1.80975,0.8255 1.80975,1.68275 z m 14.065209,4.191 q -1.2065,0.889 -1.905,0.889 -0.92075,0 -2.667,-1.905 -1.23825,-1.3335 -2.44475,-2.69875 -0.6985,-0.8255 -2.2225,-2.31775 l -0.0952,0.0635 v 2.794 q 0,0.254 0.1905,0.762 0.22225,0.47625 0.22225,0.762 0,0.4445 -0.47625,0.762 -0.4445,0.34925 -0.92075,0.34925 -0.8255,0 -1.36525,-0.53975 -0.53975,-0.53975 -0.53975,-1.36525 v -4.191 q 0,-0.381 0.09525,-1.143 0.127,-0.79375 0.127,-1.17475 v -8.54075 q 0,-1.93675 -0.28575,-3.1115 -0.127,-0.53975 -0.127,-0.8255 0,-0.60325 0.73025,-1.0795 0.635,-0.4445 1.27,-0.4445 0.47625,0 1.016,0.381 0.5715,0.34925 0.5715,0.79375 0,0.127 -0.1905,0.889 -0.1905,0.762 -0.1905,2.3495 0,0.508 -0.0952,8.47725 0.127,-0.127 3.429,-3.14325 2.7305,-2.54 3.20675,-2.54 1.68275,0 1.61925,2.06375 v 0.3175 q -1.36525,0.79375 -3.52425,2.50825 -2.7305,2.12725 -2.7305,2.82575 0,0.0635 1.7145,2.00025 1.61925,1.8415 2.032,2.286 1.905,2.00025 3.556,2.7305 z m 6.47692,-12.35075 q 0,0.85725 -2.63525,1.2065 -0.0635,0.6985 -0.0635,3.175 v 2.0955 q 0,0.635 0.1905,1.87325 0.22225,1.23825 0.22225,1.8415 0,0.508 -0.508,0.92075 -0.508,0.381 -1.016,0.381 -0.79375,0 -1.3335,-1.36525 -0.41275,-1.04775 -0.41275,-2.032 v -6.731 q -1.4605,-0.22225 -1.68275,-0.28575 -0.8255,-0.254 -0.8255,-0.73025 0,-0.127 0.0635,-0.28575 0.8255,-1.17475 1.8415,-1.17475 0.0635,0 0.1905,0 0.127,0.03175 0.1905,0.03175 0.66675,0 0.635,-1.55575 v -2.31775 q -0.1905,-0.34925 -0.1905,-0.60325 0,-0.41275 0.47625,-0.73025 0.508,-0.34925 0.9525,-0.34925 0.66675,0 1.27,0.635 0.60325,0.60325 0.60325,1.30175 0,0.762 -0.254,1.524 -0.22225,0.73025 -0.1905,1.524 v 0.127 q 2.4765,0.254 2.4765,1.524 z m 11.84269,5.11175 q 0,2.8575 -1.42875,4.8895 -1.651,2.31775 -4.3815,2.31775 -2.794,0 -4.22275,-1.905 -1.30175,-1.68275 -1.30175,-4.572 0,-2.8575 1.42875,-5.3975 1.651,-3.01625 4.28625,-3.01625 0.8255,0 2.06375,0.73025 3.556,2.12725 3.556,6.95325 z m -2.794,-0.0635 q 0,-4.85775 -2.3495,-4.85775 -1.68275,0 -2.54,2.06375 -0.635,1.55575 -0.635,3.52425 0,4.22275 2.50825,4.22275 1.61925,0 2.413,-1.74625 0.60325,-1.3335 0.60325,-3.20675 z m 15.58923,-1.23825 q 0,3.2385 -1.143,5.49275 -1.42875,2.921 -4.318,2.921 -1.55575,0 -2.667,-0.889 0,0.34925 0,0.9525 0,0.6985 0,0.9525 0,3.048 0.6985,4.79425 0.3175,0.6985 0.3175,0.889 0,1.0795 -1.27,1.0795 -0.9525,0 -1.42875,-0.34925 -0.34925,-0.22225 -0.6985,-1.5875 -0.28575,-1.2065 -0.28575,-1.8415 v -7.65175 q 0,-1.04775 0.127,-2.8575 0.127,-2.032 0.15875,-2.82575 0.0318,-0.79375 0,-2.0955 -0.0317,-1.651 -0.0317,-2.12725 0,-2.69875 1.778,-2.69875 0.4445,0 0.8255,0.3175 0.381,0.28575 0.381,0.6985 0,0.6985 -0.15875,2.54 1.23825,-1.74625 2.9845,-1.74625 2.3495,0 3.6195,1.905 1.11125,1.651 1.11125,4.1275 z m -2.82575,-0.28575 q 0,-3.429 -1.4605,-3.429 -0.635,0 -1.651,1.23825 -1.9685,2.38125 -2.159,6.57225 0.34925,0.1905 1.23825,1.3335 0.6985,0.85725 1.397,0.85725 2.63525,0 2.63525,-6.57225 z"
       id="text5"
       transform="rotate(6.8996162)"
       aria-label="desktop" />
  </g>
</svg>
