<svg xmlns="http://www.w3.org/2000/svg" xmlns:xlink="http://www.w3.org/1999/xlink" width="900" height="180"
  viewBox="-80, 0, 3000, 600">

  <defs>
    <linearGradient id="sharing-gradient" x1="0" x2="100%" y1="0" y2="30%" gradientUnits="objectBoundingBox">
      <stop stop-color="rgb(173, 74, 82)" offset="0%" />
      <stop stop-color="rgb(244, 75, 75)" offset="30%" />
      <stop stop-color="rgb(255, 127, 127)" offset="50%" />
      <stop stop-color="rgb(244, 75, 75)" offset="70%" />
      <stop stop-color="rgb(173, 74, 82)" offset="100%" />
    </linearGradient>
  </defs>

  <!-- Icon: 600x600, rotated -->
  <g transform="rotate(20, 300, 300)">
    <rect rx="20" ry="20" fill="rgb(173, 74, 82)" x="300" width="250" y="200" height="200" />
    <rect rx="20" ry="20" fill="rgb(244, 75, 75)" x="180" width="240" y="100" height="400" />
    <rect rx="20" ry="20" fill="rgb(255, 127, 127)" x="50" width="250" y="200" height="200" />
  </g>

  <g transform="translate(640, 20) scale(5.5, 5.5)">
    <!-- Font: https://fonts.google.com/specimen/Edu+TAS+Beginner, bold -->
    <path fill-rule="nonzero" fill="rgb(30%, 30%, 30%)" fill-opacity="1"
      d="M 18.015625 81.300781 C 13.984375 81.300781 10.878906 79.515625 8.703125 75.945313 L 9.703125 75.335938 L 8.730469 75.984375 C 8.089844 75.027344 7.789063 74.050781 7.820313 73.050781 C 7.863281 71.855469 8.402344 70.976563 9.449219 70.414063 L 10.003906 71.441406 L 9.390625 70.445313 C 10.503906 69.761719 11.511719 69.773438 12.414063 70.488281 C 13 70.949219 13.554688 71.617188 14.074219 72.488281 L 14.085938 72.503906 L 14.09375 72.519531 C 15.019531 74.167969 16.550781 74.992188 18.6875 74.992188 C 20.414063 74.992188 21.917969 74.476563 23.199219 73.449219 C 24.445313 72.453125 25.148438 71.195313 25.3125 69.667969 L 25.320313 69.636719 C 25.460938 68.601563 25.363281 67.9375 25.027344 67.640625 C 24.601563 67.261719 23.285156 67.070313 21.085938 67.070313 C 17.671875 67.070313 15.164063 66.285156 13.5625 64.714844 C 11.894531 63.074219 11.347656 60.703125 11.921875 57.601563 C 12.476563 54.671875 13.933594 52.242188 16.304688 50.316406 C 18.664063 48.394531 21.433594 47.433594 24.605469 47.433594 C 27.984375 47.433594 30.8125 48.90625 33.09375 51.855469 C 34.183594 53.265625 34.585938 54.46875 34.308594 55.46875 C 34.0625 56.347656 33.53125 57.09375 32.722656 57.699219 L 32.667969 57.742188 L 32.609375 57.777344 C 31.605469 58.359375 30.582031 58.332031 29.535156 57.6875 C 28.757813 57.210938 28.101563 56.613281 27.5625 55.894531 C 27.023438 55.1875 26.425781 54.660156 25.777344 54.316406 C 25.152344 53.984375 24.4375 53.816406 23.632813 53.816406 C 22.308594 53.816406 21.179688 54.191406 20.246094 54.945313 C 19.328125 55.683594 18.742188 56.757813 18.492188 58.167969 C 18.375 58.945313 18.550781 59.484375 19.019531 59.785156 C 19.726563 60.238281 20.964844 60.460938 22.734375 60.460938 C 25.203125 60.460938 27.15625 60.800781 28.585938 61.472656 C 30.144531 62.207031 31.191406 63.28125 31.726563 64.703125 C 32.222656 66.003906 32.355469 67.550781 32.132813 69.339844 C 31.859375 71.59375 31.035156 73.636719 29.660156 75.476563 C 28.304688 77.292969 26.609375 78.71875 24.574219 79.75 C 22.535156 80.785156 20.347656 81.300781 18.015625 81.300781 Z M 18.015625 78.960938 C 19.976563 78.960938 21.808594 78.527344 23.515625 77.664063 C 25.222656 76.796875 26.648438 75.601563 27.785156 74.074219 C 28.910156 72.570313 29.585938 70.894531 29.808594 69.050781 C 29.984375 67.644531 29.894531 66.472656 29.539063 65.527344 C 29.226563 64.699219 28.578125 64.054688 27.589844 63.589844 C 26.472656 63.066406 24.855469 62.804688 22.734375 62.804688 C 20.507813 62.804688 18.851563 62.453125 17.757813 61.757813 C 16.433594 60.910156 15.910156 59.578125 16.1875 57.761719 C 16.539063 55.773438 17.402344 54.226563 18.78125 53.121094 C 20.140625 52.023438 21.757813 51.476563 23.632813 51.476563 C 24.824219 51.476563 25.90625 51.734375 26.875 52.25 C 27.824219 52.753906 28.679688 53.5 29.4375 54.492188 C 29.796875 54.972656 30.238281 55.371094 30.761719 55.695313 C 31.011719 55.847656 31.234375 55.867188 31.429688 55.753906 L 32.019531 56.765625 L 31.316406 55.828125 C 31.703125 55.539063 31.949219 55.207031 32.054688 54.839844 C 32.121094 54.59375 31.851563 54.074219 31.242188 53.289063 C 29.429688 50.945313 27.21875 49.773438 24.605469 49.773438 C 21.988281 49.773438 19.710938 50.558594 17.78125 52.128906 C 15.855469 53.699219 14.667969 55.664063 14.222656 58.027344 C 13.800781 60.316406 14.125 61.988281 15.203125 63.042969 C 16.347656 64.167969 18.308594 64.730469 21.085938 64.730469 C 23.878906 64.730469 25.707031 65.117188 26.578125 65.886719 C 27.539063 66.738281 27.894531 68.09375 27.636719 69.957031 L 26.476563 69.796875 L 27.640625 69.921875 C 27.40625 72.089844 26.414063 73.875 24.664063 75.277344 C 22.949219 76.648438 20.960938 77.332031 18.6875 77.332031 C 15.636719 77.332031 13.425781 76.109375 12.050781 73.664063 L 13.074219 73.089844 L 12.070313 73.691406 C 11.695313 73.066406 11.324219 72.609375 10.960938 72.324219 C 10.914063 72.289063 10.800781 72.324219 10.617188 72.441406 L 10.585938 72.457031 L 10.558594 72.472656 C 10.304688 72.609375 10.171875 72.828125 10.160156 73.128906 C 10.144531 73.628906 10.316406 74.148438 10.675781 74.6875 L 10.691406 74.707031 L 10.703125 74.726563 C 12.421875 77.550781 14.859375 78.960938 18.015625 78.960938 Z M 18.015625 80.128906 C 14.421875 80.128906 11.648438 78.53125 9.703125 75.335938 C 9.203125 74.589844 8.964844 73.839844 8.992188 73.089844 C 9.015625 72.339844 9.351563 71.792969 10.003906 71.441406 C 10.652344 71.042969 11.214844 71.03125 11.6875 71.40625 C 12.160156 71.78125 12.625 72.339844 13.074219 73.089844 C 14.222656 75.136719 16.09375 76.160156 18.6875 76.160156 C 20.6875 76.160156 22.433594 75.5625 23.929688 74.363281 C 25.429688 73.164063 26.277344 71.644531 26.476563 69.796875 C 26.675781 68.347656 26.453125 67.335938 25.804688 66.761719 C 25.15625 66.1875 23.582031 65.902344 21.085938 65.902344 C 17.992188 65.902344 15.757813 65.226563 14.382813 63.878906 C 13.011719 62.53125 12.574219 60.507813 13.074219 57.8125 C 13.570313 55.167969 14.894531 52.96875 17.042969 51.222656 C 19.1875 49.476563 21.710938 48.601563 24.605469 48.601563 C 27.601563 48.601563 30.121094 49.925781 32.167969 52.570313 C 33.019531 53.667969 33.355469 54.53125 33.179688 55.15625 C 33.003906 55.777344 32.617188 56.316406 32.019531 56.765625 C 31.421875 57.113281 30.796875 57.089844 30.148438 56.691406 C 29.496094 56.289063 28.949219 55.792969 28.5 55.191406 C 27.851563 54.34375 27.125 53.707031 26.328125 53.28125 C 25.527344 52.859375 24.628906 52.644531 23.632813 52.644531 C 22.035156 52.644531 20.660156 53.109375 19.511719 54.03125 C 18.363281 54.957031 17.640625 56.265625 17.339844 57.964844 C 17.140625 59.261719 17.492188 60.199219 18.390625 60.773438 C 19.289063 61.34375 20.734375 61.632813 22.734375 61.632813 C 25.03125 61.632813 26.816406 61.933594 28.085938 62.53125 C 29.359375 63.128906 30.210938 63.992188 30.632813 65.113281 C 31.058594 66.238281 31.171875 67.597656 30.972656 69.195313 C 30.722656 71.242188 29.972656 73.101563 28.722656 74.777344 C 27.476563 76.449219 25.914063 77.757813 24.042969 78.707031 C 22.171875 79.65625 20.160156 80.128906 18.015625 80.128906 Z" />
    <!-- t -->
    <path fill-rule="nonzero" fill="rgb(30%, 30%, 30%)" fill-opacity="1"
      d="M 40.480469 54.191406 C 39.199219 54.191406 38.277344 53.824219 37.71875 53.09375 C 37.230469 52.460938 36.988281 51.738281 36.988281 50.921875 C 36.988281 50.082031 37.246094 49.367188 37.761719 48.773438 C 38.320313 48.128906 39.226563 47.804688 40.480469 47.804688 L 57.03125 47.804688 C 58.285156 47.804688 59.191406 48.128906 59.75 48.773438 C 60.265625 49.367188 60.523438 50.082031 60.523438 50.921875 C 60.523438 51.738281 60.28125 52.460938 59.796875 53.09375 C 59.238281 53.824219 58.316406 54.191406 57.03125 54.191406 Z M 40.480469 51.851563 L 57.03125 51.851563 C 57.546875 51.851563 57.847656 51.792969 57.9375 51.671875 C 58.101563 51.457031 58.183594 51.207031 58.183594 50.921875 C 58.183594 50.664063 58.117188 50.460938 57.980469 50.304688 C 57.890625 50.199219 57.574219 50.148438 57.03125 50.148438 L 40.480469 50.148438 C 39.9375 50.148438 39.621094 50.199219 39.53125 50.304688 C 39.398438 50.460938 39.332031 50.664063 39.332031 50.921875 C 39.332031 51.207031 39.414063 51.457031 39.578125 51.671875 C 39.667969 51.792969 39.96875 51.851563 40.480469 51.851563 Z M 44.824219 81.300781 C 43.433594 81.300781 42.277344 80.980469 41.351563 80.34375 C 40.402344 79.6875 39.734375 78.714844 39.359375 77.425781 C 39.019531 76.265625 38.917969 74.804688 39.054688 73.039063 C 39.183594 71.34375 39.558594 69.339844 40.175781 67.023438 L 47.367188 38.324219 L 47.378906 38.292969 C 47.707031 37.234375 48.222656 36.46875 48.917969 35.992188 C 49.59375 35.53125 50.449219 35.300781 51.488281 35.300781 C 52.734375 35.300781 53.570313 35.761719 54.007813 36.679688 C 54.359375 37.421875 54.394531 38.28125 54.113281 39.261719 L 52.988281 38.941406 L 54.121094 39.226563 L 46.785156 68.582031 C 46.164063 71.019531 45.875 72.742188 45.917969 73.75 C 45.933594 74.09375 45.976563 74.316406 46.042969 74.417969 C 45.996094 74.351563 45.941406 74.316406 45.875 74.316406 C 46.070313 74.316406 46.78125 73.757813 48.003906 72.636719 C 49.433594 71.335938 51.558594 69.195313 54.386719 66.21875 C 55.367188 65.1875 56.164063 64.417969 56.773438 63.914063 C 57.5625 63.261719 58.347656 62.933594 59.128906 62.933594 C 59.488281 62.933594 59.828125 63.003906 60.152344 63.140625 C 60.796875 63.417969 61.121094 64.015625 61.121094 64.929688 C 61.121094 65.457031 60.871094 66.238281 60.367188 67.273438 C 59.910156 68.21875 59.15625 69.371094 58.109375 70.734375 C 55.257813 74.402344 52.835938 77.046875 50.84375 78.675781 C 48.707031 80.425781 46.699219 81.300781 44.824219 81.300781 Z M 44.824219 78.960938 C 46.144531 78.960938 47.65625 78.261719 49.363281 76.867188 C 51.21875 75.347656 53.515625 72.828125 56.253906 69.308594 C 57.203125 68.070313 57.875 67.054688 58.261719 66.25 C 58.609375 65.539063 58.78125 65.097656 58.78125 64.929688 C 58.78125 65.042969 58.929688 65.164063 59.230469 65.292969 C 59.203125 65.28125 59.167969 65.273438 59.128906 65.273438 C 58.910156 65.273438 58.621094 65.421875 58.265625 65.71875 C 57.726563 66.160156 57 66.867188 56.082031 67.832031 C 53.21875 70.847656 51.050781 73.023438 49.582031 74.367188 C 47.914063 75.894531 46.675781 76.65625 45.875 76.65625 C 44.429688 76.65625 43.664063 75.722656 43.582031 73.855469 C 43.527344 72.617188 43.835938 70.667969 44.511719 68.015625 L 51.855469 38.640625 L 51.863281 38.621094 C 51.980469 38.203125 51.992188 37.890625 51.894531 37.683594 C 51.878906 37.65625 51.746094 37.640625 51.488281 37.640625 C 50.933594 37.640625 50.515625 37.734375 50.242188 37.921875 C 49.992188 38.09375 49.78125 38.449219 49.613281 38.992188 L 48.496094 38.640625 L 49.628906 38.925781 L 42.4375 67.625 C 41.855469 69.804688 41.503906 71.667969 41.386719 73.21875 C 41.273438 74.699219 41.34375 75.882813 41.605469 76.769531 C 41.828125 77.527344 42.183594 78.074219 42.679688 78.417969 C 43.203125 78.777344 43.917969 78.960938 44.824219 78.960938 Z M 40.480469 53.019531 C 39.582031 53.019531 38.972656 52.808594 38.648438 52.382813 C 38.324219 51.960938 38.160156 51.472656 38.160156 50.921875 C 38.160156 50.375 38.324219 49.914063 38.648438 49.539063 C 38.972656 49.164063 39.582031 48.976563 40.480469 48.976563 L 57.03125 48.976563 C 57.929688 48.976563 58.542969 49.164063 58.867188 49.539063 C 59.191406 49.914063 59.351563 50.375 59.351563 50.921875 C 59.351563 51.472656 59.191406 51.960938 58.867188 52.382813 C 58.542969 52.808594 57.929688 53.019531 57.03125 53.019531 Z M 44.824219 80.128906 C 43.675781 80.128906 42.742188 79.878906 42.015625 79.382813 C 41.292969 78.882813 40.78125 78.121094 40.480469 77.097656 C 40.183594 76.074219 40.09375 74.75 40.21875 73.128906 C 40.34375 71.503906 40.707031 69.570313 41.304688 67.324219 L 48.496094 38.640625 C 48.746094 37.84375 49.105469 37.28125 49.582031 36.957031 C 50.054688 36.632813 50.691406 36.46875 51.488281 36.46875 C 52.238281 36.46875 52.726563 36.707031 52.949219 37.183594 C 53.175781 37.65625 53.1875 38.242188 52.988281 38.941406 L 45.648438 68.296875 C 45 70.84375 44.699219 72.679688 44.75 73.800781 C 44.800781 74.925781 45.175781 75.488281 45.875 75.488281 C 46.371094 75.488281 47.347656 74.824219 48.792969 73.503906 C 50.242188 72.179688 52.390625 70.019531 55.234375 67.023438 C 56.183594 66.027344 56.945313 65.289063 57.519531 64.816406 C 58.09375 64.339844 58.628906 64.105469 59.128906 64.105469 C 59.328125 64.105469 59.515625 64.140625 59.691406 64.214844 C 59.863281 64.292969 59.953125 64.527344 59.953125 64.929688 C 59.953125 65.277344 59.742188 65.890625 59.316406 66.761719 C 58.890625 67.636719 58.179688 68.722656 57.179688 70.019531 C 54.386719 73.613281 52.027344 76.199219 50.105469 77.769531 C 48.183594 79.34375 46.421875 80.128906 44.824219 80.128906 Z" />
    <!-- l -->
    <path transform="translate(-0.9, 0)" fill-rule="nonzero" fill="rgb(30%, 30%, 30%)" fill-opacity="1"
      d="M 70.363281 81.300781 C 68.503906 81.300781 67.023438 80.652344 65.914063 79.355469 C 64.871094 78.132813 64.28125 76.433594 64.140625 74.253906 C 64.007813 72.210938 64.277344 69.808594 64.957031 67.046875 L 75.75 24.171875 L 75.761719 24.140625 C 76.085938 23.09375 76.582031 22.332031 77.242188 21.855469 C 77.894531 21.382813 78.773438 21.144531 79.871094 21.144531 C 81.113281 21.144531 81.953125 21.605469 82.390625 22.527344 C 82.742188 23.265625 82.777344 24.128906 82.496094 25.109375 L 81.371094 24.789063 L 82.503906 25.074219 L 71.570313 68.582031 C 71.050781 70.863281 70.8125 72.664063 70.855469 73.984375 C 70.875 74.519531 70.9375 74.882813 71.042969 75.082031 C 71.007813 75.019531 70.933594 74.992188 70.8125 74.992188 C 70.96875 74.992188 71.394531 74.617188 72.085938 73.867188 C 72.980469 72.902344 74.113281 71.488281 75.484375 69.625 C 76.316406 68.535156 76.960938 67.75 77.410156 67.269531 C 78.066406 66.574219 78.863281 66.230469 79.796875 66.230469 C 80.703125 66.230469 81.433594 66.550781 81.992188 67.195313 C 82.507813 67.789063 82.765625 68.53125 82.765625 69.421875 C 82.765625 70.128906 82.574219 70.8125 82.195313 71.46875 C 81.894531 71.988281 81.277344 72.84375 80.34375 74.035156 C 78.535156 76.363281 76.828125 78.132813 75.222656 79.34375 C 73.492188 80.648438 71.871094 81.300781 70.363281 81.300781 Z M 70.363281 78.960938 C 71.347656 78.960938 72.5 78.464844 73.8125 77.472656 C 75.253906 76.386719 76.816406 74.761719 78.5 72.59375 C 79.367188 71.488281 79.921875 70.722656 80.171875 70.296875 C 80.339844 70.003906 80.425781 69.710938 80.425781 69.421875 C 80.425781 69.113281 80.359375 68.882813 80.222656 68.726563 C 80.132813 68.621094 79.992188 68.570313 79.796875 68.570313 C 79.535156 68.570313 79.308594 68.671875 79.113281 68.875 C 78.71875 69.296875 78.136719 70.007813 77.371094 71.015625 C 75.945313 72.945313 74.757813 74.425781 73.804688 75.457031 C 72.648438 76.707031 71.652344 77.332031 70.8125 77.332031 C 69.359375 77.332031 68.59375 76.242188 68.519531 74.066406 C 68.464844 72.542969 68.726563 70.523438 69.300781 68.011719 L 80.238281 24.484375 L 80.246094 24.464844 C 80.363281 24.050781 80.375 23.738281 80.277344 23.527344 C 80.261719 23.5 80.128906 23.488281 79.871094 23.488281 C 79.277344 23.488281 78.855469 23.574219 78.609375 23.75 C 78.371094 23.925781 78.167969 24.285156 77.992188 24.835938 L 76.878906 24.488281 L 78.011719 24.773438 L 67.230469 67.601563 C 66.609375 70.132813 66.359375 72.296875 66.472656 74.101563 C 66.582031 75.765625 66.988281 77.007813 67.695313 77.835938 C 68.335938 78.585938 69.222656 78.960938 70.363281 78.960938 Z M 70.363281 80.128906 C 68.863281 80.128906 67.679688 79.617188 66.804688 78.59375 C 65.929688 77.570313 65.433594 76.097656 65.308594 74.175781 C 65.183594 72.253906 65.445313 69.96875 66.09375 67.324219 L 76.878906 24.488281 C 77.125 23.691406 77.476563 23.128906 77.925781 22.804688 C 78.375 22.480469 79.023438 22.316406 79.871094 22.316406 C 80.621094 22.316406 81.109375 22.554688 81.332031 23.027344 C 81.558594 23.503906 81.570313 24.089844 81.371094 24.789063 L 70.4375 68.296875 C 69.886719 70.695313 69.636719 72.605469 69.6875 74.027344 C 69.738281 75.449219 70.113281 76.160156 70.8125 76.160156 C 71.308594 76.160156 72.023438 75.660156 72.945313 74.664063 C 73.867188 73.664063 75.03125 72.21875 76.429688 70.320313 C 77.226563 69.269531 77.839844 68.523438 78.261719 68.074219 C 78.6875 67.625 79.199219 67.398438 79.796875 67.398438 C 80.347656 67.398438 80.785156 67.585938 81.109375 67.960938 C 81.433594 68.335938 81.59375 68.820313 81.59375 69.421875 C 81.59375 69.921875 81.457031 70.40625 81.183594 70.882813 C 80.910156 71.355469 80.320313 72.167969 79.421875 73.316406 C 77.675781 75.5625 76.039063 77.257813 74.519531 78.40625 C 72.996094 79.554688 71.609375 80.128906 70.363281 80.128906 Z" />
    <!-- i -->
    <path fill-rule="nonzero" fill="rgb(30%, 30%, 30%)" fill-opacity="1"
      d="M 86.6875 81.300781 C 85.117188 81.300781 84.1875 80.671875 83.898438 79.417969 C 83.707031 78.585938 83.734375 77.683594 83.980469 76.699219 L 90.496094 50.9375 C 90.761719 49.867188 91.246094 49.074219 91.945313 48.558594 C 92.628906 48.058594 93.519531 47.804688 94.625 47.804688 C 95.867188 47.804688 96.707031 48.265625 97.144531 49.1875 C 97.492188 49.925781 97.527344 50.789063 97.25 51.769531 L 96.125 51.449219 L 97.257813 51.734375 L 90.742188 77.570313 C 90.519531 78.464844 90.234375 79.230469 89.886719 79.867188 C 89.363281 80.824219 88.296875 81.300781 86.6875 81.300781 Z M 86.6875 78.960938 C 87.371094 78.960938 87.753906 78.886719 87.832031 78.746094 C 88.082031 78.285156 88.296875 77.703125 88.472656 77 L 94.992188 51.144531 L 95 51.125 C 95.117188 50.710938 95.128906 50.398438 95.027344 50.1875 C 95.015625 50.160156 94.878906 50.148438 94.625 50.148438 C 94.03125 50.148438 93.601563 50.246094 93.335938 50.441406 C 93.085938 50.625 92.898438 50.980469 92.765625 51.511719 L 86.25 77.269531 C 86.097656 77.886719 86.074219 78.425781 86.179688 78.894531 C 86.191406 78.9375 86.359375 78.960938 86.6875 78.960938 Z M 97.097656 42.359375 C 95.992188 42.359375 95.074219 41.9375 94.339844 41.09375 C 93.652344 40.300781 93.304688 39.433594 93.304688 38.492188 C 93.304688 37.542969 93.644531 36.695313 94.320313 35.949219 C 95.027344 35.167969 95.953125 34.777344 97.097656 34.777344 C 98.078125 34.777344 98.960938 35.101563 99.75 35.753906 C 100.609375 36.464844 101.039063 37.375 101.039063 38.492188 C 101.039063 39.453125 100.65625 40.335938 99.890625 41.136719 C 99.109375 41.949219 98.179688 42.359375 97.097656 42.359375 Z M 97.097656 40.019531 C 97.511719 40.019531 97.878906 39.851563 98.199219 39.519531 C 98.53125 39.171875 98.699219 38.828125 98.699219 38.492188 C 98.699219 38.109375 98.550781 37.800781 98.261719 37.558594 C 97.902344 37.265625 97.515625 37.117188 97.097656 37.117188 C 96.644531 37.117188 96.296875 37.25 96.054688 37.515625 C 95.78125 37.820313 95.644531 38.144531 95.644531 38.492188 C 95.644531 38.851563 95.800781 39.207031 96.109375 39.558594 C 96.375 39.867188 96.703125 40.019531 97.097656 40.019531 Z M 86.6875 80.128906 C 85.738281 80.128906 85.191406 79.804688 85.039063 79.15625 C 84.890625 78.507813 84.914063 77.785156 85.113281 76.984375 L 91.628906 51.222656 C 91.828125 50.425781 92.167969 49.851563 92.640625 49.5 C 93.117188 49.152344 93.777344 48.976563 94.625 48.976563 C 95.375 48.976563 95.859375 49.214844 96.085938 49.6875 C 96.308594 50.164063 96.324219 50.75 96.125 51.449219 L 89.609375 77.285156 C 89.410156 78.082031 89.160156 78.757813 88.859375 79.304688 C 88.558594 79.855469 87.835938 80.128906 86.6875 80.128906 Z M 97.097656 41.1875 C 96.347656 41.1875 95.722656 40.902344 95.226563 40.328125 C 94.726563 39.753906 94.476563 39.140625 94.476563 38.492188 C 94.476563 37.84375 94.710938 37.257813 95.1875 36.734375 C 95.660156 36.207031 96.296875 35.945313 97.097656 35.945313 C 97.796875 35.945313 98.433594 36.183594 99.007813 36.65625 C 99.582031 37.132813 99.867188 37.742188 99.867188 38.492188 C 99.867188 39.140625 99.59375 39.753906 99.042969 40.328125 C 98.496094 40.902344 97.84375 41.1875 97.097656 41.1875 Z" />
    <!-- te -->
    <path transform="translate(1.2, 0)" fill-rule="nonzero" fill="rgb(30%, 30%, 30%)" fill-opacity="1"
      d="M 103.011719 54.191406 C 101.730469 54.191406 100.808594 53.824219 100.25 53.09375 C 99.765625 52.460938 99.519531 51.738281 99.519531 50.921875 C 99.519531 50.082031 99.777344 49.367188 100.292969 48.773438 C 100.851563 48.128906 101.757813 47.804688 103.011719 47.804688 L 119.5625 47.804688 C 120.816406 47.804688 121.722656 48.128906 122.28125 48.773438 C 122.796875 49.367188 123.054688 50.082031 123.054688 50.921875 C 123.054688 51.738281 122.8125 52.460938 122.328125 53.09375 C 121.769531 53.824219 120.847656 54.191406 119.5625 54.191406 Z M 103.011719 51.851563 L 119.5625 51.851563 C 120.078125 51.851563 120.378906 51.792969 120.46875 51.671875 C 120.632813 51.457031 120.714844 51.207031 120.714844 50.921875 C 120.714844 50.664063 120.648438 50.460938 120.515625 50.304688 C 120.421875 50.199219 120.105469 50.148438 119.5625 50.148438 L 103.011719 50.148438 C 102.46875 50.148438 102.152344 50.199219 102.0625 50.304688 C 101.929688 50.460938 101.863281 50.664063 101.863281 50.921875 C 101.863281 51.207031 101.945313 51.457031 102.109375 51.671875 C 102.199219 51.792969 102.5 51.851563 103.011719 51.851563 Z M 107.355469 81.300781 C 105.964844 81.300781 104.808594 80.980469 103.882813 80.34375 C 102.933594 79.6875 102.265625 78.714844 101.890625 77.425781 C 101.550781 76.265625 101.449219 74.804688 101.585938 73.039063 C 101.714844 71.34375 102.089844 69.339844 102.707031 67.023438 L 109.898438 38.324219 L 109.910156 38.292969 C 110.238281 37.234375 110.753906 36.46875 111.449219 35.992188 C 112.125 35.53125 112.980469 35.300781 114.019531 35.300781 C 115.265625 35.300781 116.101563 35.761719 116.539063 36.679688 C 116.890625 37.421875 116.925781 38.28125 116.644531 39.261719 L 115.519531 38.941406 L 116.65625 39.226563 L 109.316406 68.582031 C 108.695313 71.019531 108.40625 72.742188 108.449219 73.75 C 108.464844 74.09375 108.507813 74.316406 108.574219 74.417969 C 108.527344 74.351563 108.472656 74.316406 108.40625 74.316406 C 108.601563 74.316406 109.3125 73.757813 110.535156 72.636719 C 111.964844 71.335938 114.089844 69.195313 116.917969 66.21875 C 117.898438 65.1875 118.695313 64.417969 119.304688 63.914063 C 120.09375 63.261719 120.878906 62.933594 121.660156 62.933594 C 122.019531 62.933594 122.359375 63.003906 122.683594 63.140625 C 123.332031 63.417969 123.652344 64.015625 123.652344 64.929688 C 123.652344 65.457031 123.402344 66.238281 122.898438 67.273438 C 122.441406 68.21875 121.6875 69.371094 120.640625 70.734375 C 117.789063 74.402344 115.367188 77.046875 113.378906 78.675781 C 111.238281 80.425781 109.234375 81.300781 107.355469 81.300781 Z M 107.355469 78.960938 C 108.675781 78.960938 110.1875 78.261719 111.894531 76.867188 C 113.75 75.347656 116.046875 72.828125 118.785156 69.308594 C 119.734375 68.070313 120.40625 67.054688 120.792969 66.25 C 121.140625 65.539063 121.3125 65.097656 121.3125 64.929688 C 121.3125 65.042969 121.460938 65.164063 121.761719 65.292969 C 121.734375 65.28125 121.699219 65.273438 121.660156 65.273438 C 121.441406 65.273438 121.152344 65.421875 120.796875 65.71875 C 120.257813 66.160156 119.53125 66.867188 118.613281 67.832031 C 115.75 70.847656 113.582031 73.023438 112.113281 74.367188 C 110.445313 75.894531 109.207031 76.65625 108.40625 76.65625 C 106.960938 76.65625 106.195313 75.722656 106.113281 73.855469 C 106.058594 72.617188 106.367188 70.667969 107.046875 68.015625 L 114.390625 38.640625 L 114.394531 38.621094 C 114.511719 38.203125 114.523438 37.890625 114.425781 37.683594 C 114.410156 37.65625 114.277344 37.640625 114.019531 37.640625 C 113.464844 37.640625 113.046875 37.734375 112.773438 37.921875 C 112.523438 38.09375 112.3125 38.449219 112.144531 38.992188 L 111.027344 38.640625 L 112.160156 38.925781 L 104.96875 67.625 C 104.386719 69.804688 104.035156 71.667969 103.917969 73.21875 C 103.804688 74.699219 103.875 75.882813 104.136719 76.769531 C 104.359375 77.527344 104.714844 78.074219 105.210938 78.417969 C 105.738281 78.777344 106.449219 78.960938 107.355469 78.960938 Z M 103.011719 53.019531 C 102.113281 53.019531 101.503906 52.808594 101.179688 52.382813 C 100.855469 51.960938 100.691406 51.472656 100.691406 50.921875 C 100.691406 50.375 100.855469 49.914063 101.179688 49.539063 C 101.503906 49.164063 102.113281 48.976563 103.011719 48.976563 L 119.5625 48.976563 C 120.460938 48.976563 121.074219 49.164063 121.398438 49.539063 C 121.722656 49.914063 121.882813 50.375 121.882813 50.921875 C 121.882813 51.472656 121.722656 51.960938 121.398438 52.382813 C 121.074219 52.808594 120.460938 53.019531 119.5625 53.019531 Z M 107.355469 80.128906 C 106.207031 80.128906 105.273438 79.878906 104.546875 79.382813 C 103.824219 78.882813 103.3125 78.121094 103.011719 77.097656 C 102.714844 76.074219 102.625 74.75 102.75 73.128906 C 102.875 71.503906 103.238281 69.570313 103.835938 67.324219 L 111.027344 38.640625 C 111.277344 37.84375 111.636719 37.28125 112.113281 36.957031 C 112.585938 36.632813 113.222656 36.46875 114.019531 36.46875 C 114.769531 36.46875 115.257813 36.707031 115.480469 37.183594 C 115.707031 37.65625 115.71875 38.242188 115.519531 38.941406 L 108.179688 68.296875 C 107.53125 70.84375 107.230469 72.679688 107.28125 73.800781 C 107.332031 74.925781 107.707031 75.488281 108.40625 75.488281 C 108.902344 75.488281 109.878906 74.824219 111.324219 73.503906 C 112.773438 72.179688 114.921875 70.019531 117.765625 67.023438 C 118.714844 66.027344 119.476563 65.289063 120.050781 64.816406 C 120.625 64.339844 121.160156 64.105469 121.660156 64.105469 C 121.859375 64.105469 122.046875 64.140625 122.222656 64.214844 C 122.394531 64.292969 122.484375 64.527344 122.484375 64.929688 C 122.484375 65.277344 122.273438 65.890625 121.847656 66.761719 C 121.421875 67.636719 120.710938 68.722656 119.714844 70.019531 C 116.917969 73.613281 114.558594 76.199219 112.636719 77.769531 C 110.714844 79.34375 108.953125 80.128906 107.355469 80.128906 Z M 134.015625 81.300781 C 131.742188 81.300781 129.867188 80.546875 128.386719 79.039063 C 126.964844 77.585938 126.058594 75.585938 125.671875 73.042969 C 125.296875 70.59375 125.503906 67.769531 126.289063 64.574219 C 127.171875 61.199219 128.40625 58.253906 129.992188 55.730469 C 131.605469 53.167969 133.5 51.15625 135.6875 49.691406 C 137.929688 48.183594 140.34375 47.433594 142.929688 47.433594 C 145.074219 47.433594 146.871094 48.082031 148.316406 49.378906 C 149.796875 50.710938 150.539063 52.347656 150.539063 54.292969 C 150.539063 56.445313 149.527344 58.628906 147.5 60.847656 C 145.59375 62.9375 143.027344 64.898438 139.800781 66.730469 C 136.605469 68.542969 133 70.085938 128.976563 71.359375 L 127.121094 71.949219 L 128.503906 64.453125 L 129.199219 64.253906 C 132.070313 63.425781 134.617188 62.429688 136.84375 61.269531 C 139.035156 60.125 140.761719 58.921875 142.027344 57.660156 C 143.144531 56.539063 143.707031 55.519531 143.707031 54.59375 C 143.707031 54.457031 143.601563 54.316406 143.390625 54.175781 C 143.042969 53.9375 142.5625 53.816406 141.953125 53.816406 C 140.84375 53.816406 139.746094 54.273438 138.667969 55.1875 C 137.484375 56.1875 136.417969 57.59375 135.464844 59.40625 C 134.484375 61.273438 133.679688 63.433594 133.054688 65.890625 C 132.257813 69.164063 132.113281 71.578125 132.621094 73.140625 C 133.019531 74.375 133.808594 74.992188 134.988281 74.992188 C 136.472656 74.992188 138.222656 74.222656 140.234375 72.683594 C 142.394531 71.035156 144.921875 68.566406 147.816406 65.277344 L 148.695313 66.050781 L 147.78125 65.320313 C 148.402344 64.542969 149.21875 64.132813 150.222656 64.09375 C 151.160156 64.058594 151.996094 64.332031 152.71875 64.914063 C 153.445313 65.476563 153.828125 66.226563 153.871094 67.160156 C 153.90625 68.007813 153.644531 68.816406 153.085938 69.585938 L 153.023438 69.664063 C 149.703125 73.492188 146.523438 76.375 143.480469 78.308594 C 140.34375 80.304688 137.1875 81.300781 134.015625 81.300781 Z M 134.015625 78.960938 C 136.734375 78.960938 139.472656 78.085938 142.226563 76.335938 C 145.074219 74.523438 148.085938 71.789063 151.253906 68.128906 L 152.140625 68.898438 L 151.191406 68.207031 C 151.433594 67.878906 151.546875 67.566406 151.53125 67.261719 C 151.523438 67.050781 151.429688 66.875 151.257813 66.738281 C 150.988281 66.523438 150.671875 66.421875 150.3125 66.433594 C 150.019531 66.445313 149.785156 66.5625 149.609375 66.78125 L 149.589844 66.804688 L 149.574219 66.824219 C 146.578125 70.226563 143.9375 72.800781 141.652344 74.542969 C 139.222656 76.402344 137 77.332031 134.988281 77.332031 C 132.675781 77.332031 131.144531 76.175781 130.394531 73.863281 C 129.753906 71.878906 129.882813 69.03125 130.785156 65.3125 C 131.457031 62.675781 132.328125 60.347656 133.394531 58.316406 C 134.488281 56.234375 135.742188 54.597656 137.15625 53.402344 C 138.671875 52.117188 140.269531 51.476563 141.953125 51.476563 C 143.042969 51.476563 143.960938 51.730469 144.710938 52.242188 C 145.601563 52.847656 146.046875 53.632813 146.046875 54.59375 C 146.046875 56.164063 145.257813 57.738281 143.679688 59.316406 C 142.25 60.746094 140.332031 62.089844 137.929688 63.34375 C 135.5625 64.578125 132.867188 65.632813 129.847656 66.5 L 129.523438 65.378906 L 130.675781 65.589844 L 129.773438 70.457031 L 128.625 70.246094 L 128.273438 69.128906 C 132.136719 67.90625 135.59375 66.429688 138.644531 64.695313 C 141.65625 62.984375 144.03125 61.175781 145.769531 59.269531 C 147.390625 57.496094 148.199219 55.839844 148.199219 54.292969 C 148.199219 53.042969 147.714844 51.984375 146.753906 51.121094 C 145.75 50.222656 144.476563 49.773438 142.929688 49.773438 C 140.820313 49.773438 138.839844 50.394531 136.988281 51.632813 C 135.082031 52.914063 133.410156 54.695313 131.972656 56.976563 C 130.515625 59.296875 129.378906 62.015625 128.5625 65.132813 C 127.851563 68.027344 127.65625 70.546875 127.984375 72.691406 C 128.296875 74.738281 128.988281 76.308594 130.058594 77.402344 C 131.078125 78.441406 132.398438 78.960938 134.015625 78.960938 Z M 134.015625 80.128906 C 132.070313 80.128906 130.472656 79.492188 129.222656 78.21875 C 127.976563 76.949219 127.175781 75.164063 126.828125 72.867188 C 126.476563 70.570313 126.675781 67.898438 127.425781 64.851563 C 128.273438 61.609375 129.460938 58.773438 130.984375 56.351563 C 132.507813 53.933594 134.292969 52.035156 136.339844 50.660156 C 138.386719 49.289063 140.582031 48.601563 142.929688 48.601563 C 144.777344 48.601563 146.3125 49.152344 147.535156 50.25 C 148.757813 51.347656 149.367188 52.695313 149.367188 54.292969 C 149.367188 56.140625 148.457031 58.0625 146.636719 60.058594 C 144.8125 62.058594 142.339844 63.941406 139.222656 65.714844 C 136.101563 67.488281 132.570313 68.996094 128.625 70.246094 L 129.523438 65.378906 C 132.46875 64.527344 135.089844 63.503906 137.386719 62.308594 C 139.683594 61.109375 141.503906 59.835938 142.851563 58.488281 C 144.203125 57.140625 144.875 55.839844 144.875 54.59375 C 144.875 54.042969 144.601563 53.582031 144.050781 53.207031 C 143.503906 52.832031 142.804688 52.644531 141.953125 52.644531 C 140.558594 52.644531 139.207031 53.195313 137.910156 54.292969 C 136.613281 55.390625 135.453125 56.914063 134.429688 58.863281 C 133.40625 60.808594 132.570313 63.054688 131.917969 65.601563 C 131.070313 69.097656 130.933594 71.730469 131.507813 73.503906 C 132.082031 75.273438 133.242188 76.160156 134.988281 76.160156 C 136.738281 76.160156 138.722656 75.3125 140.945313 73.613281 C 143.164063 71.917969 145.75 69.394531 148.695313 66.050781 C 149.09375 65.550781 149.617188 65.289063 150.265625 65.265625 C 150.917969 65.238281 151.492188 65.425781 151.988281 65.828125 C 152.4375 66.175781 152.675781 66.636719 152.699219 67.210938 C 152.726563 67.785156 152.539063 68.347656 152.140625 68.898438 C 148.894531 72.640625 145.800781 75.449219 142.851563 77.320313 C 139.90625 79.195313 136.960938 80.128906 134.015625 80.128906 Z M 134.015625 80.128906" />
  </g>

  <!-- Font: Roboto 700 -->
  <g fill="url(#sharing-gradient)" transform="translate(1580, 210) scale(3.4, 3.4)">
    <path d="M 67.871 0 L 67.871 27.93 Q 73.486 21.191 81.982 21.191 A 21.087 21.087 0 0 1 89.314 22.363 Q 98.575 25.786 99.347 39.217 A 43.093 43.093 0 0 1 99.414 41.162 L 99.414 75 L 85.303 75 L 85.303 41.553 A 16.803 16.803 0 0 0 85.14 39.125 Q 84.958 37.883 84.573 36.886 A 6.557 6.557 0 0 0 83.35 34.839 A 5.777 5.777 0 0 0 81.097 33.335 Q 80.155 32.969 78.975 32.803 A 15.281 15.281 0 0 0 76.855 32.666 A 12.566 12.566 0 0 0 73.234 33.157 A 9.038 9.038 0 0 0 67.871 37.451 L 67.871 75 L 53.76 75 L 53.76 0 L 67.871 0 Z M 280.615 48.779 L 280.615 48.193 A 41.676 41.676 0 0 1 281.363 40.066 Q 282.695 33.368 286.401 28.613 A 18.452 18.452 0 0 1 299.83 21.287 A 24.267 24.267 0 0 1 302.002 21.191 A 20.294 20.294 0 0 1 307.865 21.995 A 15.361 15.361 0 0 1 315.527 27.148 L 316.113 22.168 L 328.906 22.168 L 328.906 73.242 Q 328.906 80.176 325.757 85.303 Q 322.607 90.43 316.895 93.115 A 27.557 27.557 0 0 1 309.636 95.323 A 37.461 37.461 0 0 1 303.516 95.801 Q 297.705 95.801 292.188 93.481 Q 287.405 91.471 284.641 88.452 A 14.964 14.964 0 0 1 283.838 87.5 L 290.088 78.906 A 18.173 18.173 0 0 0 295.304 83.035 A 16.283 16.283 0 0 0 302.881 84.814 A 16.868 16.868 0 0 0 306.41 84.468 Q 308.623 83.994 310.301 82.873 A 9.6 9.6 0 0 0 311.621 81.812 Q 314.635 78.915 314.742 73.68 A 19.018 19.018 0 0 0 314.746 73.291 L 314.746 70.459 A 16.071 16.071 0 0 1 303.129 75.943 A 21.965 21.965 0 0 1 301.904 75.977 A 19.665 19.665 0 0 1 293.655 74.285 Q 289.706 72.486 286.693 68.772 A 23.891 23.891 0 0 1 286.499 68.53 Q 281.107 61.706 280.656 50.8 A 48.994 48.994 0 0 1 280.615 48.779 Z M 44.873 38.232 L 30.762 38.232 A 7.69 7.69 0 0 0 30.374 35.744 A 6.537 6.537 0 0 0 28.809 33.228 A 5.943 5.943 0 0 0 26.587 31.841 Q 25.643 31.495 24.472 31.351 A 14.545 14.545 0 0 0 22.705 31.25 A 12.675 12.675 0 0 0 20.563 31.419 Q 18.507 31.772 17.188 32.861 A 5.413 5.413 0 0 0 15.786 34.565 A 5.177 5.177 0 0 0 15.234 36.963 A 4.148 4.148 0 0 0 16.744 40.213 A 6.248 6.248 0 0 0 17.456 40.747 A 10.149 10.149 0 0 0 18.947 41.526 Q 21.161 42.483 24.951 43.237 Q 30.225 44.287 33.838 45.605 A 22.738 22.738 0 0 1 38.989 48.208 Q 44.737 52.196 45.006 59.126 A 17.729 17.729 0 0 1 45.02 59.814 Q 45.02 67.041 38.818 71.509 A 22.58 22.58 0 0 1 30.955 75.059 Q 27.829 75.833 24.174 75.954 A 41.473 41.473 0 0 1 22.803 75.977 Q 16.162 75.977 11.011 73.608 A 21.721 21.721 0 0 1 6.164 70.596 A 18.277 18.277 0 0 1 2.93 67.114 A 15.661 15.661 0 0 1 0.387 61.593 A 14.82 14.82 0 0 1 0 58.203 L 13.379 58.203 A 9.178 9.178 0 0 0 13.845 60.727 A 6.816 6.816 0 0 0 16.162 63.965 A 9.017 9.017 0 0 0 19.353 65.512 Q 20.607 65.853 22.085 65.938 A 17.557 17.557 0 0 0 23.096 65.967 A 17.134 17.134 0 0 0 25.328 65.831 Q 27.765 65.51 29.224 64.429 Q 31.296 62.892 31.299 60.406 A 5.953 5.953 0 0 0 31.299 60.4 A 4.286 4.286 0 0 0 29.679 56.98 A 6.65 6.65 0 0 0 28.735 56.323 Q 26.172 54.834 20.508 53.662 Q 1.66 49.707 1.66 37.646 Q 1.66 30.615 7.495 25.903 A 20.446 20.446 0 0 1 15.689 21.969 Q 18.711 21.243 22.248 21.195 A 37.121 37.121 0 0 1 22.754 21.191 A 34.692 34.692 0 0 1 29.396 21.79 Q 34.956 22.875 38.843 25.928 A 15.96 15.96 0 0 1 43.07 30.802 Q 44.845 34.042 44.873 38.103 A 18.903 18.903 0 0 1 44.873 38.232 Z M 226.367 22.168 L 239.648 22.168 L 240.088 28.271 A 18.143 18.143 0 0 1 253.237 21.276 A 24.015 24.015 0 0 1 255.273 21.191 Q 261.462 21.191 265.317 23.869 A 12.329 12.329 0 0 1 267.773 26.123 A 15.857 15.857 0 0 1 270.512 31.126 Q 271.302 33.404 271.665 36.202 A 39.341 39.341 0 0 1 271.973 40.869 L 271.973 75 L 257.861 75 L 257.861 41.211 Q 257.861 36.719 255.908 34.692 Q 253.955 32.666 249.414 32.666 A 10.976 10.976 0 0 0 245.366 33.38 Q 242.683 34.435 240.915 37.05 A 12.824 12.824 0 0 0 240.479 37.744 L 240.479 75 L 226.367 75 L 226.367 22.168 Z M 154.932 75 L 140.674 75 Q 139.843 73.38 139.401 71.089 A 22.86 22.86 0 0 1 139.258 70.264 A 16.879 16.879 0 0 1 126.941 75.954 A 22.758 22.758 0 0 1 125.928 75.977 A 22.071 22.071 0 0 1 119.851 75.177 A 17.343 17.343 0 0 1 113.062 71.484 A 14.366 14.366 0 0 1 107.982 61.054 A 17.717 17.717 0 0 1 107.959 60.156 A 18.007 18.007 0 0 1 108.798 54.515 A 14.265 14.265 0 0 1 114.185 47.266 A 20.938 20.938 0 0 1 120.158 44.349 Q 122.979 43.455 126.414 43.053 A 51.506 51.506 0 0 1 132.178 42.725 L 138.672 42.725 L 138.672 39.697 A 11.596 11.596 0 0 0 138.429 37.254 Q 138.077 35.622 137.217 34.387 A 7.007 7.007 0 0 0 136.792 33.838 A 5.807 5.807 0 0 0 134.181 32.123 Q 133.215 31.795 132.027 31.69 A 13.253 13.253 0 0 0 130.859 31.641 A 12.01 12.01 0 0 0 128.638 31.833 Q 127.373 32.072 126.373 32.604 A 6.304 6.304 0 0 0 125.269 33.35 A 5.589 5.589 0 0 0 123.292 37.137 A 7.951 7.951 0 0 0 123.242 38.037 L 109.131 38.037 A 14.168 14.168 0 0 1 111.941 29.572 A 17.271 17.271 0 0 1 111.963 29.541 Q 114.795 25.635 119.971 23.413 A 27.365 27.365 0 0 1 127.687 21.408 A 34.228 34.228 0 0 1 131.592 21.191 A 31.479 31.479 0 0 1 137.96 21.798 Q 143.374 22.917 147.095 26.099 A 16.009 16.009 0 0 1 152.506 35.883 A 23.615 23.615 0 0 1 152.832 39.893 L 152.832 62.793 A 45.237 45.237 0 0 0 153.018 66.733 Q 153.458 71.397 154.932 74.17 L 154.932 75 Z M 193.555 21.826 L 193.359 35.4 A 49.55 49.55 0 0 0 191.295 35.162 Q 190.167 35.057 189.166 35.025 A 27.049 27.049 0 0 0 188.281 35.01 A 18.162 18.162 0 0 0 184.519 35.37 Q 182.381 35.824 180.824 36.849 A 8.375 8.375 0 0 0 177.783 40.43 L 177.783 75 L 163.672 75 L 163.672 22.168 L 177.002 22.168 L 177.393 28.467 A 17.101 17.101 0 0 1 180.45 24.552 A 12.303 12.303 0 0 1 189.16 21.191 A 15.352 15.352 0 0 1 192.378 21.519 A 13.591 13.591 0 0 1 193.555 21.826 Z M 215.039 22.168 L 215.039 75 L 200.879 75 L 200.879 22.168 L 215.039 22.168 Z M 314.746 59.717 L 314.746 37.5 A 9.285 9.285 0 0 0 308.031 32.865 A 13.972 13.972 0 0 0 305.615 32.666 Q 300.809 32.666 297.949 36.384 A 11.933 11.933 0 0 0 297.632 36.816 Q 294.783 40.886 294.728 48.898 A 46.193 46.193 0 0 0 294.727 49.219 A 28.911 28.911 0 0 0 295.037 53.595 Q 295.672 57.734 297.607 60.474 Q 300.338 64.339 305 64.54 A 12.008 12.008 0 0 0 305.518 64.551 A 13.391 13.391 0 0 0 309.168 64.085 A 9.068 9.068 0 0 0 314.746 59.717 Z M 138.672 60.059 L 138.672 50.977 L 133.398 50.977 A 22.914 22.914 0 0 0 129.503 51.279 Q 122.664 52.464 122.119 58.301 L 122.07 59.131 Q 122.07 61.768 123.926 63.477 A 6.19 6.19 0 0 0 126.611 64.903 Q 127.695 65.186 129.004 65.186 A 12.154 12.154 0 0 0 134.766 63.794 A 10.115 10.115 0 0 0 137.106 62.12 A 8.494 8.494 0 0 0 138.672 60.059 Z M 200.477 5.871 A 7.747 7.747 0 0 0 200.049 8.496 A 9.169 9.169 0 0 0 200.062 8.992 A 6.826 6.826 0 0 0 202.222 13.77 A 7.247 7.247 0 0 0 205.481 15.532 A 10.093 10.093 0 0 0 207.959 15.82 A 10.504 10.504 0 0 0 209.953 15.64 A 7.359 7.359 0 0 0 213.696 13.77 A 6.687 6.687 0 0 0 215.453 11.092 A 7.793 7.793 0 0 0 215.869 8.496 A 9.131 9.131 0 0 0 215.864 8.177 A 6.846 6.846 0 0 0 213.721 3.271 A 7.154 7.154 0 0 0 210.415 1.497 A 10.314 10.314 0 0 0 207.959 1.221 Q 206.643 1.221 205.526 1.486 A 7.067 7.067 0 0 0 202.173 3.271 A 6.726 6.726 0 0 0 200.477 5.871 Z" vector-effect="non-scaling-stroke"/>
  </g>
</svg>
