<?xml version="1.0" standalone="no"?>
<!DOCTYPE svg PUBLIC "-//W3C//DTD SVG 20010904//EN"
 "http://www.w3.org/TR/2001/REC-SVG-20010904/DTD/svg10.dtd">
<svg version="1.0" xmlns="http://www.w3.org/2000/svg"
 width="2000.000000pt" height="2000.000000pt" viewBox="0 0 2000.000000 2000.000000"
 preserveAspectRatio="xMidYMid meet">
<metadata>
Created by potrace 1.14, written by Peter Selinger 2001-2017
</metadata>
<g transform="translate(0.000000,2000.000000) scale(0.100000,-0.100000)"
fill="#000000" stroke="none">
<path d="M5529 17481 c51 -64 229 -280 571 -692 184 -222 456 -550 604 -729
148 -179 294 -354 323 -390 30 -36 61 -73 68 -82 50 -61 202 -245 210 -254 12
-12 45 -52 186 -224 57 -69 105 -127 108 -130 3 -3 35 -41 71 -85 36 -44 75
-91 86 -105 12 -14 81 -97 154 -185 269 -326 326 -391 450 -513 212 -210 401
-317 649 -369 85 -17 376 -25 456 -13 28 4 95 11 150 14 55 4 118 9 140 11 57
6 159 14 235 20 36 3 85 7 110 10 25 2 79 7 120 10 41 3 95 8 120 10 25 3 79
7 120 10 41 3 95 8 120 10 157 14 199 18 230 20 75 5 197 16 240 20 25 3 74 7
110 10 147 10 208 15 260 20 59 6 110 10 230 20 41 3 98 8 125 11 28 2 78 6
113 9 116 9 187 15 232 20 25 2 77 7 115 10 128 10 200 15 245 20 25 2 79 6
120 10 41 3 95 8 120 10 25 2 83 7 130 11 47 4 99 8 115 9 17 2 68 6 115 10
47 3 101 8 120 10 19 2 73 6 120 10 47 4 103 8 125 10 22 2 72 7 110 9 39 3
97 8 130 11 33 3 86 8 118 10 55 5 101 9 237 20 36 3 85 8 110 10 25 2 81 7
125 10 44 3 100 8 125 10 25 2 77 7 115 10 39 4 88 8 110 10 22 2 76 7 120 10
44 3 103 7 130 10 28 2 82 7 120 10 39 3 93 8 120 10 28 3 79 7 115 10 36 2
83 7 105 9 22 3 81 7 130 11 50 3 101 8 115 10 14 2 66 6 115 10 50 3 110 8
135 10 25 2 77 7 115 10 39 3 93 8 120 10 130 11 176 15 247 21 101 7 113 10
111 18 -7 19 -101 140 -168 215 -403 452 -1111 858 -2065 1183 -243 83 -750
236 -870 263 -8 1 -87 22 -175 45 -88 23 -171 44 -185 47 -14 2 -50 11 -82 19
-59 15 -528 120 -575 129 -28 5 -36 7 -123 26 -25 5 -92 18 -150 29 -58 11
-112 22 -120 25 -8 2 -30 7 -47 10 -18 3 -78 14 -133 25 -55 11 -113 22 -128
25 -15 3 -38 7 -52 10 -14 3 -63 12 -110 21 -47 9 -94 18 -105 20 -11 2 -36 7
-55 10 -49 9 -55 10 -140 27 -41 9 -91 18 -110 21 -42 7 -69 12 -135 26 -58
12 -86 17 -135 26 -19 4 -44 8 -55 11 -41 8 -641 123 -675 129 -34 6 -280 54
-305 60 -11 2 -33 6 -50 9 -66 12 -304 57 -365 70 -36 8 -81 17 -100 20 -19 3
-69 12 -110 20 -41 8 -86 17 -100 19 -14 3 -36 7 -50 10 -14 3 -41 9 -60 12
-19 3 -78 14 -130 24 -52 11 -180 35 -285 55 -186 36 -384 74 -695 134 -85 16
-166 32 -180 35 -44 8 -354 67 -380 73 -14 2 -34 6 -45 8 -47 8 -142 25 -165
30 -14 3 -81 16 -150 30 -69 13 -206 40 -305 59 -99 19 -196 38 -215 41 -19 3
-66 12 -105 20 -38 8 -85 17 -103 20 -18 3 -63 12 -100 19 -37 8 -85 17 -107
20 -22 4 -47 8 -55 11 -8 2 -26 6 -40 9 -22 3 -81 14 -176 32 -15 3 -55 11
-90 18 l-64 13 29 -36z"/>
<path d="M19897 13114 c-1 -1 -42 -5 -92 -8 -49 -4 -108 -9 -130 -11 -22 -3
-71 -7 -110 -10 -38 -3 -92 -7 -120 -10 -27 -2 -79 -7 -115 -10 -36 -3 -90 -7
-120 -10 -30 -2 -86 -7 -125 -10 -88 -7 -177 -14 -235 -20 -25 -2 -83 -7 -130
-10 -47 -4 -102 -8 -123 -11 -21 -2 -68 -6 -105 -9 -37 -3 -92 -7 -122 -10
-30 -2 -86 -7 -125 -10 -120 -10 -189 -16 -225 -20 -19 -2 -73 -7 -120 -10
-131 -9 -191 -14 -240 -19 -25 -3 -79 -8 -120 -11 -100 -8 -150 -12 -240 -20
-41 -3 -97 -8 -125 -10 -27 -2 -79 -6 -115 -10 -36 -3 -90 -8 -120 -10 -66 -4
-175 -13 -247 -20 -120 -11 -171 -16 -358 -30 -38 -4 -90 -8 -115 -10 -25 -3
-79 -7 -120 -10 -41 -3 -93 -8 -115 -10 -22 -2 -80 -6 -130 -10 -49 -4 -101
-8 -115 -10 -14 -3 -63 -7 -110 -10 -47 -3 -105 -7 -130 -10 -25 -2 -79 -7
-120 -10 -41 -3 -91 -8 -110 -10 -19 -3 -73 -7 -120 -10 -47 -4 -101 -8 -120
-10 -19 -2 -73 -6 -120 -10 -47 -3 -101 -8 -120 -10 -19 -2 -73 -7 -120 -10
-47 -3 -101 -8 -120 -10 -19 -2 -71 -7 -115 -10 -44 -3 -100 -8 -125 -10 -25
-2 -79 -7 -120 -10 -41 -3 -124 -10 -185 -15 -60 -6 -135 -12 -165 -15 -81 -6
-189 -15 -235 -20 -22 -2 -80 -7 -130 -10 -49 -3 -106 -8 -125 -10 -19 -2 -71
-7 -115 -11 -44 -3 -96 -7 -115 -9 -19 -2 -73 -7 -120 -10 -47 -4 -101 -8
-120 -10 -19 -2 -71 -6 -115 -10 -44 -3 -100 -8 -125 -10 -25 -2 -81 -6 -125
-10 -44 -3 -100 -7 -125 -10 -25 -3 -74 -7 -110 -10 -138 -11 -182 -15 -237
-20 -78 -7 -154 -14 -238 -20 -72 -5 -155 -13 -235 -20 -25 -2 -79 -7 -120
-10 -41 -3 -91 -8 -110 -10 -19 -2 -82 -7 -140 -11 -58 -3 -112 -8 -121 -9 -9
-2 -57 -6 -105 -10 -49 -3 -105 -8 -124 -10 -19 -2 -71 -6 -115 -10 -44 -3
-93 -7 -110 -9 -16 -3 -73 -7 -125 -11 -52 -4 -112 -8 -132 -10 -21 -2 -72 -7
-115 -10 -43 -3 -94 -7 -113 -10 -19 -2 -73 -7 -120 -10 -47 -3 -101 -8 -120
-10 -19 -2 -75 -6 -125 -10 -49 -3 -106 -8 -125 -10 -43 -5 -131 -13 -230 -20
-41 -3 -95 -8 -120 -10 -25 -2 -79 -7 -120 -10 -41 -4 -91 -8 -110 -10 -19 -2
-78 -6 -130 -10 -52 -3 -106 -8 -120 -10 -14 -2 -63 -7 -110 -10 -89 -7 -132
-10 -240 -20 -36 -4 -87 -8 -115 -10 -140 -10 -204 -16 -245 -20 -25 -2 -85
-7 -135 -11 -49 -3 -97 -7 -105 -9 -9 -2 -60 -6 -115 -10 -55 -3 -113 -8 -130
-10 -16 -2 -68 -7 -115 -10 -47 -3 -101 -8 -120 -10 -19 -2 -69 -7 -110 -10
-41 -3 -100 -8 -130 -10 -30 -3 -86 -7 -125 -10 -38 -3 -90 -7 -115 -10 -56
-6 -131 -12 -235 -20 -44 -4 -100 -8 -125 -10 -25 -3 -79 -7 -120 -10 -41 -3
-91 -7 -110 -10 -19 -2 -71 -7 -115 -10 -44 -3 -100 -8 -125 -10 -25 -2 -79
-7 -120 -10 -41 -3 -95 -8 -120 -10 -25 -3 -76 -7 -115 -10 -38 -2 -97 -7
-130 -10 -33 -3 -86 -7 -118 -10 -31 -3 -83 -7 -115 -10 -31 -3 -82 -7 -112
-9 -30 -3 -91 -8 -135 -11 -44 -4 -91 -8 -105 -10 -14 -2 -68 -7 -120 -10 -52
-4 -112 -8 -134 -10 -21 -3 -70 -7 -110 -10 -39 -3 -91 -8 -116 -10 -25 -2
-79 -7 -120 -10 -41 -3 -95 -8 -120 -10 -25 -2 -76 -6 -115 -10 -111 -8 -186
-15 -235 -20 -25 -3 -83 -7 -130 -10 -47 -3 -103 -7 -125 -10 -22 -3 -69 -7
-105 -10 -36 -2 -114 -9 -175 -14 -60 -6 -144 -13 -185 -16 -121 -9 -192 -15
-240 -20 -25 -2 -76 -7 -115 -10 -267 -21 -417 -33 -480 -40 -22 -2 -67 -7
-100 -10 -66 -6 -129 -13 -190 -20 -22 -3 -62 -7 -90 -10 -55 -7 -72 -9 -190
-25 -104 -15 -125 -18 -220 -35 -44 -8 -96 -17 -115 -20 -19 -3 -60 -12 -90
-20 -30 -8 -66 -16 -80 -18 -14 -3 -45 -11 -70 -18 -25 -7 -49 -13 -55 -14
-70 -15 -303 -103 -397 -151 -254 -129 -468 -333 -662 -634 -105 -162 -125
-194 -122 -198 2 -1 16 -5 32 -8 16 -3 74 -13 129 -24 55 -10 120 -22 145 -25
24 -4 47 -8 50 -10 3 -2 21 -6 40 -9 19 -3 105 -19 190 -35 85 -16 169 -32
185 -34 17 -3 55 -10 85 -17 30 -6 69 -13 85 -16 75 -12 257 -46 325 -61 41
-8 86 -16 100 -18 14 -1 52 -8 85 -15 117 -23 150 -30 185 -35 19 -3 67 -12
105 -20 84 -16 280 -53 315 -59 26 -4 175 -32 220 -41 36 -7 130 -24 165 -30
17 -3 41 -8 55 -11 14 -3 36 -8 50 -10 78 -14 218 -40 285 -54 28 -5 61 -11
75 -14 14 -2 52 -9 85 -15 33 -6 74 -14 90 -16 17 -3 62 -12 100 -20 39 -8 86
-17 105 -20 19 -3 46 -8 60 -10 57 -12 76 -15 105 -20 17 -3 77 -15 135 -26
58 -11 121 -22 140 -25 19 -3 42 -7 50 -10 9 -2 115 -22 235 -45 241 -44 248
-45 320 -59 28 -5 64 -12 80 -14 17 -3 64 -12 105 -20 41 -8 89 -17 105 -20
17 -3 41 -8 55 -11 14 -3 39 -8 55 -10 70 -12 142 -25 165 -30 47 -9 195 -37
220 -41 14 -3 48 -9 75 -14 28 -5 61 -12 75 -14 14 -3 59 -12 100 -20 41 -8
91 -17 110 -20 19 -3 58 -10 85 -15 28 -6 61 -13 75 -15 14 -2 171 -32 350
-65 179 -34 334 -63 345 -65 11 -2 61 -11 110 -21 50 -9 101 -19 115 -21 14
-3 70 -13 125 -24 55 -10 114 -21 130 -24 17 -3 113 -21 215 -40 102 -19 259
-49 350 -66 91 -17 224 -41 295 -55 72 -13 145 -27 163 -30 18 -3 65 -12 105
-21 39 -8 90 -17 111 -20 21 -2 42 -6 45 -8 4 -3 27 -7 51 -11 25 -4 68 -11
95 -16 28 -6 61 -12 75 -15 14 -2 36 -7 50 -9 37 -8 82 -16 105 -20 11 -2 46
-8 78 -14 31 -6 81 -15 110 -20 28 -6 102 -19 162 -31 61 -12 121 -23 135 -26
14 -2 72 -13 130 -24 58 -11 116 -21 130 -24 14 -2 36 -7 50 -10 14 -3 36 -8
50 -10 69 -11 315 -58 318 -61 3 -3 -132 -238 -636 -1100 -151 -258 -284 -486
-295 -505 -34 -62 -168 -290 -256 -440 -47 -80 -91 -154 -96 -165 -6 -11 -94
-162 -195 -335 -101 -173 -189 -324 -195 -335 -5 -11 -18 -31 -26 -45 -9 -14
-234 -398 -499 -855 -266 -456 -569 -976 -673 -1155 -105 -179 -198 -339 -208
-356 -9 -18 -112 -193 -227 -390 -115 -198 -219 -375 -229 -394 -11 -19 -30
-52 -43 -73 l-22 -37 83 31 c46 17 255 93 464 170 209 77 391 144 404 150 20
8 561 209 661 245 19 7 366 134 770 284 404 149 949 350 1210 447 261 96 518
191 570 210 52 19 124 46 160 59 36 14 88 33 115 44 28 10 113 42 190 70 77
28 205 75 285 105 225 83 567 209 1015 374 226 83 433 160 460 171 28 11 136
51 240 89 105 38 417 153 695 256 278 103 546 202 595 220 50 18 153 56 230
85 77 29 208 77 290 107 503 185 1785 660 1925 713 74 28 158 60 185 70 54 19
298 115 330 129 11 5 61 26 110 46 633 262 996 533 1271 950 76 116 90 141
178 320 120 245 247 583 336 900 5 17 18 62 29 100 23 82 81 293 86 315 9 38
125 468 134 495 11 33 31 111 36 136 2 9 12 47 23 85 11 38 44 157 72 264 57
211 166 615 231 855 46 167 138 512 144 535 9 37 135 508 144 535 5 17 20 73
35 125 14 52 63 237 110 410 47 173 92 342 101 375 9 33 18 67 20 75 3 8 9 32
14 53 l9 38 -50 -3 c-27 -2 -50 -4 -51 -4z"/>
</g>
</svg>
