<?xml version="1.0" encoding="UTF-8" standalone="no"?>
<svg
   width="540"
   height="180"
   viewBox="-80, 0, 1800, 600"
   version="1.1"
   id="svg7"
   sodipodi:docname="logo_candidate4.svg"
   inkscape:version="1.3 (0e150ed, 2023-07-21)"
   inkscape:export-filename="logo_candidate3.png"
   inkscape:export-xdpi="96"
   inkscape:export-ydpi="96"
   xmlns:inkscape="http://www.inkscape.org/namespaces/inkscape"
   xmlns:sodipodi="http://sodipodi.sourceforge.net/DTD/sodipodi-0.dtd"
   xmlns="http://www.w3.org/2000/svg"
   xmlns:svg="http://www.w3.org/2000/svg">
  <defs
     id="defs7" />
  <sodipodi:namedview
     id="namedview7"
     pagecolor="#ffffff"
     bordercolor="#000000"
     borderopacity="0.25"
     inkscape:showpageshadow="2"
     inkscape:pageopacity="0.0"
     inkscape:pagecheckerboard="0"
     inkscape:deskcolor="#d1d1d1"
     inkscape:zoom="0.67812282"
     inkscape:cx="209.4016"
     inkscape:cy="-85.530229"
     inkscape:window-width="1568"
     inkscape:window-height="1027"
     inkscape:window-x="237"
     inkscape:window-y="25"
     inkscape:window-maximized="0"
     inkscape:current-layer="svg7"
     showguides="false" />
  <!-- Icon: 600x600, rotated -->
  <g
     transform="rotate(20, 300, 300)"
     id="g3">
    <rect
       rx="20"
       ry="20"
       fill="rgb(173, 74, 82)"
       x="300"
       width="250"
       y="200"
       height="200"
       id="rect1" />
    <rect
       rx="20"
       ry="20"
       fill="rgb(244, 75, 75)"
       x="180"
       width="240"
       y="100"
       height="400"
       id="rect2" />
    <rect
       rx="20"
       ry="20"
       fill="rgb(255, 127, 127)"
       x="50"
       width="250"
       y="200"
       height="200"
       id="rect3" />
  </g>
  <path
     id="path58"
     style="font-size:373.333px;line-height:1;font-family:'Bangla MN';-inkscape-font-specification:'Bangla MN';text-align:center;text-anchor:middle;fill:#4d4d4d;stroke:#000000;stroke-width:0;stroke-linecap:round;stroke-linejoin:round;paint-order:stroke fill markers"
     d="m 1571.9486,461.67392 q -21.5703,0 -40.6518,-8.08888 -18.874,-8.08888 -32.9777,-21.98517 -14.1037,-13.89628 -22.4,-32.56293 -8.0889,-18.87406 -8.0889,-40.0296 0,-25.51109 7.4667,-47.08144 7.4666,-21.77776 21.1555,-37.5407 13.6889,-15.76295 32.7703,-24.68146 19.2889,-8.91852 42.9333,-8.91852 20.7408,0 38.163,7.46666 17.4222,7.25926 29.8666,19.70369 12.6519,12.23703 19.4963,28.41479 7.0518,16.17777 7.0518,33.80738 H 1508.482 q 0,21.36294 5.3926,39.61478 5.6,18.25184 15.5556,31.5259 9.9555,13.27406 23.6444,20.74072 13.6889,7.46666 30.074,7.46666 13.6889,0 26.3407,-4.35555 12.6519,-4.56296 22.8148,-11.82221 10.3704,-7.25926 17.6297,-16.59258 7.2592,-9.33333 10.1629,-19.28887 l 12.237,5.39258 q -4.5629,16.38518 -14.7259,30.69627 -10.1629,14.3111 -23.8518,25.09628 -13.4815,10.57777 -29.4518,16.79998 -15.9704,6.22222 -32.3556,6.22222 z m 41.8963,-148.50357 q 0,-12.02962 -4.3556,-22.39998 -4.1481,-10.37037 -11.6148,-17.83703 -7.4666,-7.67406 -17.4222,-12.02961 -9.9555,-4.35556 -21.3629,-4.35556 -9.5407,0 -18.2518,4.35556 -8.7111,4.14814 -15.5556,11.82221 -6.8444,7.46666 -11.4074,17.83702 -4.3555,10.37036 -5.1852,22.39998 z" />
  <path
     style="font-size:373.333px;line-height:1;font-family:'Bangla MN';-inkscape-font-specification:'Bangla MN';text-align:center;text-anchor:middle;fill:#4d4d4d;stroke:#000000;stroke-width:0;stroke-linecap:round;stroke-linejoin:round;paint-order:stroke fill markers"
     d="m 1378.1121,172.54825 h 12.0297 v 72.17771 h 47.2888 v 18.04443 h -47.2888 V 412.311 q 0,4.77037 1.6592,8.91851 1.8667,4.14815 4.7704,7.25925 3.1111,3.11111 7.2592,4.97778 4.1482,1.65926 9.126,1.65926 7.0518,0 12.8592,-3.52593 5.8074,-3.52592 10.163,-8.7111 l 10.5777,7.05185 q -8.7111,14.72591 -22.6074,23.2296 -13.8963,8.5037 -34.4296,8.5037 -10.5777,0 -18.4592,-3.73333 -7.8815,-3.52592 -13.0667,-9.95555 -4.9777,-6.63703 -7.4666,-15.55554 -2.4889,-9.12592 -2.4889,-20.1185 V 262.77039 h -36.9185 v -7.88147 l 36.9185,-10.16296 v -60.3555 z"
     id="path57" />
  <path
     style="font-size:373.333px;line-height:1;font-family:'Bangla MN';-inkscape-font-specification:'Bangla MN';text-align:center;text-anchor:middle;fill:#4d4d4d;stroke:#000000;stroke-width:0;stroke-linecap:round;stroke-linejoin:round;paint-order:stroke fill markers"
     d="m 943.26905,172.54825 h 12.02962 v 72.17771 h 47.28883 v 18.04443 H 955.29867 V 412.311 q 0,4.77037 1.65926,8.91851 1.86666,4.14815 4.77036,7.25925 3.11111,3.11111 7.25926,4.97778 4.14814,1.65926 9.12592,1.65926 7.05184,0 12.85924,-3.52593 5.80741,-3.52592 10.16299,-8.7111 l 10.5777,7.05185 q -8.7111,14.72591 -22.60735,23.2296 -13.89629,8.5037 -34.4296,8.5037 -10.57777,0 -18.45924,-3.73333 -7.88148,-3.52592 -13.06666,-9.95555 -4.97777,-6.63703 -7.46666,-15.55554 Q 913.195,423.30358 913.195,412.311 V 262.77039 h -36.91848 v -7.88147 L 913.195,244.72596 v -60.3555 z"
     id="path53" />
  <path
     id="path53-9"
     style="font-size:373.333px;line-height:1;font-family:'Bangla MN';-inkscape-font-specification:'Bangla MN';text-align:center;text-anchor:middle;fill:#4d4d4d;fill-opacity:1;stroke:#000000;stroke-width:0;stroke-linecap:round;stroke-linejoin:round;paint-order:stroke fill markers"
     d="m 1109.6094,262.77039 -0.01,149.54061 c -10e-5,3.18025 0.5531,6.15308 1.6592,8.91851 1.2445,2.76543 2.8346,5.18518 4.7704,7.25925 2.0741,2.07407 4.4938,3.73333 7.2592,4.97778 2.7655,1.10617 5.8075,1.65926 9.126,1.65926 4.7012,0 8.9876,-1.17531 12.8592,-3.52593 3.8716,-2.35061 7.2593,-5.25431 10.163,-8.7111 l 10.5777,7.05185 c -5.8074,9.81727 -13.3432,17.56047 -22.6074,23.2296 -9.2641,5.66913 -20.7407,8.5037 -34.4296,8.5037 -7.0518,0 -13.2049,-1.24444 -18.4592,-3.73333 -5.2543,-2.35061 -9.6099,-5.66913 -13.0667,-9.95555 -3.3185,-4.42469 -5.8073,-9.60987 -7.4666,-15.55554 -1.6593,-6.08395 -2.6906,-12.79011 -2.6906,-20.1185 V 262.81314 Z m -0.01,120.89561 -42.3073,6e-5 V 148.48901 l 30.074,-12.02962 h 12.2371 z" />
  <path
     style="font-size:373.333px;line-height:1;font-family:'Bangla MN';-inkscape-font-specification:'Bangla MN';text-align:center;text-anchor:middle;fill:#4d4d4d;stroke:#000000;stroke-width:0;stroke-linecap:round;stroke-linejoin:round;paint-order:stroke fill markers"
     d="m 745.6399,446.11838 q 10.16296,0 20.1185,-2.6963 9.95555,-2.9037 17.83702,-8.29628 7.88148,-5.6 12.65185,-13.48147 4.77036,-8.08889 4.77036,-18.66665 0,-12.65185 -6.63703,-22.39998 -6.42962,-9.95555 -17.00739,-18.04443 -10.57777,-8.29629 -24.26665,-15.55555 -13.48147,-7.25925 -27.58516,-14.5185 -14.10369,-7.25925 -27.79257,-15.14073 -13.48147,-8.08888 -24.05924,-17.83702 -10.57776,-9.95555 -17.2148,-21.98517 -6.42962,-12.23702 -6.42962,-27.99997 0,-15.76295 5.8074,-29.24442 6.01481,-13.48147 17.42221,-23.22961 11.4074,-9.95555 27.99998,-15.55554 16.79998,-5.6 38.37033,-5.6 19.49628,0 34.84442,4.14815 15.34813,4.14814 26.96294,12.23702 11.6148,8.08889 19.70368,19.9111 8.08888,11.82221 13.06666,27.37775 l -23.64443,10.78518 q -4.14814,-12.65184 -10.57776,-23.02221 -6.42963,-10.57776 -15.34814,-18.04442 -8.91851,-7.46666 -20.74072,-11.4074 -11.61481,-4.14815 -26.34072,-4.14815 -13.06666,0 -22.81479,3.73333 -9.74814,3.52593 -16.38518,9.54074 -6.42962,5.8074 -9.74814,13.27406 -3.1111,7.25925 -3.1111,14.93332 0,10.78518 6.63703,19.91109 6.63703,8.91851 17.62961,17.0074 10.99258,7.88147 24.88887,15.34813 14.10369,7.46666 28.6222,15.14073 14.5185,7.67407 28.41479,15.97035 14.10369,8.29629 25.09627,18.25184 10.99258,9.74814 17.62961,21.57035 6.63704,11.61481 6.63704,26.13331 0,16.38517 -6.22222,30.90368 -6.22222,14.3111 -18.66665,25.09627 -12.44443,10.57777 -30.90368,16.79999 -18.45924,6.22222 -42.93329,6.22222 -19.9111,0 -35.46664,-4.35556 -15.55554,-4.35555 -27.58516,-12.65184 -11.82221,-8.29629 -20.32591,-20.1185 -8.5037,-12.02962 -13.89628,-27.37775 l 24.68146,-10.16296 q 4.35555,13.48147 11.6148,24.05924 7.46666,10.57777 17.2148,18.04443 9.74814,7.25925 21.57035,11.19999 12.02962,3.94074 25.51109,3.94074 z"
     id="text53" />
  <g
     id="g59"
     transform="translate(20)">
    <path
       style="font-size:373.333px;line-height:1;font-family:'Bangla MN';-inkscape-font-specification:'Bangla MN';text-align:center;text-anchor:middle;fill:#4d4d4d;stroke:#000000;stroke-width:0;stroke-linecap:round;stroke-linejoin:round;paint-order:stroke fill markers"
       d="m 1184.0681,163.42233 q 0,-4.97777 1.8667,-9.33333 1.8666,-4.35555 5.1852,-7.67406 3.3185,-3.31852 7.674,-5.18518 4.3556,-1.86667 9.3334,-1.86667 4.9777,0 9.3333,1.86667 4.3555,1.86666 7.674,5.18518 3.3186,3.31851 5.1852,7.67406 1.8667,4.35556 1.8667,9.33333 0,4.97777 -1.8667,9.33332 -1.8666,4.35556 -5.1852,7.67407 -3.3185,3.31852 -7.674,5.18518 -4.3556,1.86667 -9.3333,1.86667 -4.9778,0 -9.3334,-1.86667 -4.3555,-1.86666 -7.674,-5.18518 -3.3186,-3.31851 -5.1852,-7.67407 -1.8667,-4.35555 -1.8667,-9.33332 z"
       id="path56" />
    <path
       id="path53-9-4"
       style="font-size:373.333px;line-height:1;font-family:'Bangla MN';-inkscape-font-specification:'Bangla MN';text-align:center;text-anchor:middle;fill:#4d4d4d;fill-opacity:1;stroke:#000000;stroke-width:0;stroke-linecap:round;stroke-linejoin:round;paint-order:stroke fill markers"
       d="m 1229.2929,263.07634 -0.01,149.54061 c -2e-4,3.18025 0.5531,6.15308 1.6592,8.91851 1.2445,2.76543 2.8346,5.18518 4.7704,7.25925 2.0741,2.07407 4.4938,3.73333 7.2592,4.97778 2.7655,1.10617 5.8075,1.65926 9.126,1.65926 4.7012,0 8.9876,-1.17531 12.8592,-3.52593 3.8716,-2.35061 7.2593,-5.25431 10.163,-8.7111 l 10.3756,6.97536 c -5.8074,9.81727 -13.3432,17.56047 -22.6074,23.2296 -9.2641,5.66913 -20.7407,8.5037 -34.4296,8.5037 -7.0518,0 -13.2049,-1.24444 -18.4592,-3.73333 -5.2543,-2.35061 -9.4078,-5.59264 -12.8646,-9.87906 -3.3185,-4.42469 -5.8073,-9.60987 -7.4666,-15.55554 -1.6593,-6.08395 -2.7005,-12.79012 -2.6906,-20.1185 l 0.2021,-149.54061 z m -41.9063,-10.2615 29.6593,-12.02962 h 12.237 v 140.62063 l -42.2644,-0.70062 z" />
  </g>
</svg>
