<?xml version="1.0" encoding="UTF-8" standalone="no"?>
<svg
   width="540"
   height="180"
   viewBox="-80, 0, 1800, 600"
   version="1.1"
   id="svg7"
   sodipodi:docname="logo_candidate2.svg"
   inkscape:version="1.3 (0e150ed, 2023-07-21)"
   xmlns:inkscape="http://www.inkscape.org/namespaces/inkscape"
   xmlns:sodipodi="http://sodipodi.sourceforge.net/DTD/sodipodi-0.dtd"
   xmlns="http://www.w3.org/2000/svg"
   xmlns:svg="http://www.w3.org/2000/svg">
  <defs
     id="defs7" />
  <sodipodi:namedview
     id="namedview7"
     pagecolor="#ffffff"
     bordercolor="#000000"
     borderopacity="0.25"
     inkscape:showpageshadow="2"
     inkscape:pageopacity="0.0"
     inkscape:pagecheckerboard="0"
     inkscape:deskcolor="#d1d1d1"
     inkscape:zoom="1.6378516"
     inkscape:cx="331.2266"
     inkscape:cy="58.002814"
     inkscape:window-width="1568"
     inkscape:window-height="1027"
     inkscape:window-x="237"
     inkscape:window-y="25"
     inkscape:window-maximized="0"
     inkscape:current-layer="svg7" />
  <!-- Icon: 600x600, rotated -->
  <g
     transform="rotate(20, 300, 300)"
     id="g3">
    <rect
       rx="20"
       ry="20"
       fill="rgb(173, 74, 82)"
       x="300"
       width="250"
       y="200"
       height="200"
       id="rect1" />
    <rect
       rx="20"
       ry="20"
       fill="rgb(244, 75, 75)"
       x="180"
       width="240"
       y="100"
       height="400"
       id="rect2" />
    <rect
       rx="20"
       ry="20"
       fill="rgb(255, 127, 127)"
       x="50"
       width="250"
       y="200"
       height="200"
       id="rect3" />
  </g>
  <g
     id="text7"
     style="font-size:444.444px;line-height:1;font-family:'Lucida Grande';-inkscape-font-specification:'Lucida Grande';text-align:center;text-anchor:middle;fill:#ffffff;stroke:#000000;stroke-width:0;stroke-linecap:round;stroke-linejoin:round;paint-order:stroke fill markers"
     inkscape:label="text7"
     aria-label="Stlite" />
  <path
     id="path52"
     style="font-size:444.443px;line-height:1;font-family:'Trebuchet MS';-inkscape-font-specification:'Trebuchet MS';text-align:center;text-anchor:middle;fill:#4d4d4d;stroke:#000000;stroke-width:0;stroke-linecap:round;stroke-linejoin:round;paint-order:stroke fill markers"
     d="m 1665.0405,348.93648 h -167.5342 q 0,40.79848 22.3523,62.71681 19.7482,19.09716 50.7811,19.09716 35.3732,0 59.0276,-20.61625 l 17.3611,29.7308 q -9.5486,9.54858 -29.2968,16.493 -24.7395,9.11456 -55.1214,9.11456 -43.8366,0 -74.4355,-29.73081 -34.0711,-32.76899 -34.0711,-88.10735 0,-57.50849 34.9392,-92.2306 31.2499,-31.03289 74.0015,-31.03289 49.696,0 77.9077,27.9947 27.3437,26.90964 27.3437,71.39734 0,13.67183 -3.2552,25.17353 z m -100.0431,-89.84346 q -27.5607,0 -46.2238,17.79508 -17.7951,16.92703 -20.1823,42.10056 h 128.6889 q 0,-24.95652 -15.625,-41.66653 -17.144,-18.22911 -46.6578,-18.22911 z" />
  <path
     style="font-size:444.443px;line-height:1;font-family:'Trebuchet MS';-inkscape-font-specification:'Trebuchet MS';text-align:center;text-anchor:middle;fill:#4d4d4d;stroke:#000000;stroke-width:0;stroke-linecap:round;stroke-linejoin:round;paint-order:stroke fill markers"
     d="m 1314.5035,261.26315 h -26.9096 v -32.55197 h 26.9096 v -48.61095 l 41.2325,-15.84197 v 64.45292 h 63.8019 v 32.55197 h -63.8019 v 115.45102 q 0,29.29678 9.7656,41.66653 9.9826,12.36975 31.9009,12.36975 15.842,0 32.769,-8.02949 l 6.0764,36.2412 q -25.6076,6.5104 -56.2064,6.5104 -27.5607,0 -46.6579,-20.39924 -18.8801,-20.61625 -18.8801,-51.86615 z"
     id="path51" />
  <path
     style="font-size:444.443px;line-height:1;font-family:'Trebuchet MS';-inkscape-font-specification:'Trebuchet MS';text-align:center;text-anchor:middle;fill:#4d4d4d;stroke:#000000;stroke-width:0;stroke-linecap:round;stroke-linejoin:round;paint-order:stroke fill markers"
     d="m 1202.2121,140.82084 q 10.6336,0 18.0121,7.59546 7.5954,7.37845 7.5954,17.79508 0,10.63365 -7.5954,18.22911 -7.3785,7.37845 -18.0121,7.37845 -10.4167,0 -18.0121,-7.37845 -7.3785,-7.59546 -7.3785,-18.22911 0,-10.63364 7.3785,-18.01209 7.3784,-7.37845 18.0121,-7.37845 z"
     id="path49" />
  <path
     style="font-size:444.443px;line-height:1;font-family:'Trebuchet MS';-inkscape-font-specification:'Trebuchet MS';text-align:center;text-anchor:middle;fill:#4d4d4d;stroke:#000000;stroke-width:0;stroke-linecap:round;stroke-linejoin:round;paint-order:stroke fill markers"
     d="M 1031.8567,395.3773 V 133.44239 h 41.2325 v 254.99049 q 0,18.66313 10.6337,29.51379 10.8506,10.63365 28.2117,10.63365 v 36.89224 q -80.0779,0 -80.0779,-70.09526 z"
     id="path48" />
  <path
     id="path48-7"
     style="font-size:444.443px;line-height:1;font-family:'Trebuchet MS';-inkscape-font-specification:'Trebuchet MS';text-align:center;text-anchor:middle;fill:#4d4d4d;stroke:#000000;stroke-width:0;stroke-linecap:round;stroke-linejoin:round;paint-order:stroke fill markers"
     d="m 1179.6634,395.3773 -0.021,-131.94401 41.2328,-2.15484 v 127.15443 c 0,12.44209 3.5653,22.28002 10.6544,29.51379 7.2337,7.0891 16.6376,10.63365 28.2117,10.63365 v 36.89224 c -53.3853,0 -80.0779,-23.36509 -80.0779,-70.09526 z m -0.021,-131.94401 v 0 h -31.9009 v -34.72211 h 73.1334 v 32.56727 z" />
  <path
     style="font-size:444.443px;line-height:1;font-family:'Trebuchet MS';-inkscape-font-specification:'Trebuchet MS';text-align:center;text-anchor:middle;fill:#4d4d4d;stroke:#000000;stroke-width:0;stroke-linecap:round;stroke-linejoin:round;paint-order:stroke fill markers"
     d="m 867.14372,261.26315 h -26.90964 v -32.55197 h 26.90964 v -48.61095 l 41.2325,-15.84197 v 64.45292 h 63.80188 v 32.55197 h -63.80188 v 115.45102 q 0,29.29678 9.7656,41.66653 9.9826,12.36975 31.90093,12.36975 15.84197,0 32.76899,-8.02949 l 6.07637,36.2412 q -25.60755,6.5104 -56.20641,6.5104 -27.56067,0 -46.65783,-20.39924 -18.88015,-20.61625 -18.88015,-51.86615 z"
     id="path47" />
  <path
     style="font-size:444.443px;line-height:1;font-family:'Trebuchet MS';-inkscape-font-specification:'Trebuchet MS';text-align:center;text-anchor:middle;fill:#4d4d4d;stroke:#000000;stroke-width:0;stroke-linecap:round;stroke-linejoin:round;paint-order:stroke fill markers"
     d="m 620.8945,446.59241 15.84196,-39.93042 q 12.15274,8.89754 30.16483,14.9739 18.22911,5.85936 32.55198,5.85936 25.39054,0 40.79848,-13.88884 15.40794,-13.88885 15.40794,-35.37315 0,-16.05898 -8.68053,-29.73081 -8.46352,-13.88884 -42.96861,-30.16483 L 678.40299,306.4019 q -32.55197,-15.19093 -45.57276,-36.02419 -12.80378,-20.83327 -12.80378,-50.13005 0,-35.59016 25.17353,-59.02758 25.17353,-23.43742 64.66992,-23.43742 52.73421,0 73.35046,17.14404 l -12.80378,37.76029 q -8.68053,-6.29338 -26.47561,-12.15274 -17.79508,-5.85935 -32.986,-5.85935 -22.13534,0 -34.93912,12.58676 -12.58677,12.58676 -12.58677,32.33496 0,12.15274 4.55728,22.13535 4.55728,9.9826 12.58677,16.71001 8.2465,6.72741 33.42002,18.88015 l 26.04159,12.36975 q 32.55197,15.40794 45.57276,36.89224 13.23781,21.26729 13.23781,54.2533 0,35.80717 -28.86275,60.76369 -28.64574,24.95651 -76.82267,24.95651 -42.31757,0 -72.26539,-19.96521 z"
     id="text47" />
</svg>
