<?xml version="1.0" encoding="UTF-8" standalone="no"?>
<svg
   version="1.1"
   id="svg1"
   width="2666.6667"
   height="900"
   viewBox="0 0 2666.6667 900"
   xmlns:xlink="http://www.w3.org/1999/xlink"
   xmlns="http://www.w3.org/2000/svg" >
   <g
      id="g10"
      transform="translate(71.597182,-18.666742)">
   <g
      id="g9"
      transform="matrix(0.65976454,0,0,0.65976454,162.092,-411.0193)">
      <path
         id="path2"
         d="m 0,0 -150,-258 426,157 c 69,26 89,34 111,116 l 46,171 -730,-61 c -73,-6 -86,-16 -106,-49 z"
         fill="#f44b4b"
         transform="matrix(1.3333333,0,0,-1.3333333,537.33333,1408)"
      />
      <path
         id="path4"
         d="M 0,0 -226,42 -376,-216 50,-59 C 77,-49 80,-21 0,0"
         fill="#ad4a52"
         transform="matrix(1.3333333,0,0,-1.3333333,838.66667,1464)"
      />
      <path
         id="path6"
         d="m 0,0 259,-49 c 64,-13 164,-35 198,-85 l -298,-25 c -23,0 -33,7 -53,31 z"
         fill="#ff7f7f"
         transform="matrix(1.3333333,0,0,-1.3333333,306.66667,914.66667)"
      />
   </g>
   <path
      id="path8"
      d="M 0,0 C 29,0 50,-16 52,-48 H -55 c 5,27 23,48 55,48 m -1,36 c -58,0 -98,-44 -98,-100 0,-57 41,-101 101,-101 41,0 75,21 87,55 H 43 c -8,-12 -22,-18 -41,-18 -36,0 -54,22 -58,51 H 94 C 102,-12 63,36 -1,36 m -127,-154 c -10,-4 -21,-8 -32,-8 -24,0 -38,12 -38,40 v 82 h 71 v 35 h -71 v 70 h -42 V 31 h -45 V -4 h 45 v -82 c 0,-49 26,-79 75,-79 13,0 27,2 43,8 z m -236,-42 h 42 V 31 h -42 z m 21,235 c 14,0 27,11 27,26 0,15 -13,26 -27,26 -15,0 -27,-11 -27,-26 0,-15 12,-26 27,-26 m -128,-235 h 43 v 289 h -43 z m -48,42 c -10,-4 -21,-8 -33,-8 -23,0 -37,12 -37,40 v 82 h 71 v 35 h -71 v 70 h -42 V 31 h -45 V -4 h 45 v -82 c 0,-49 26,-79 75,-79 13,0 26,2 43,8 z m -289,239 c -62,0 -102,-32 -102,-83 0,-40 24,-67 75,-76 l 49,-10 c 32,-5 43,-20 43,-37 0,-26 -22,-41 -59,-41 -43,0 -71,21 -76,56 h -44 c 6,-59 51,-95 118,-95 63,0 106,34 106,85 0,43 -30,65 -82,75 l -38,8 c -30,5 -46,17 -46,39 0,27 23,42 58,42 41,0 61,-18 65,-48 h 44 c -7,64 -61,85 -111,85"
      fill="#282828"
      transform="matrix(1.3333333,0,0,-1.3333333,2234.6667,444.66668)"
   />
   </g>
</svg>
